<svg width="24" height="24" viewBox="0 0 24 24" fill="none" xmlns="http://www.w3.org/2000/svg">
<path d="M16.7878 7.21967C16.9285 7.36032 17.0075 7.55109 17.0075 7.75V10.25C17.0075 10.6642 16.6717 11 16.2575 11C15.8433 11 15.5075 10.6642 15.5075 10.25V9.56014L13.7871 11.2798C13.4941 11.5727 13.0193 11.5726 12.7264 11.2796C12.4336 10.9867 12.4337 10.5118 12.7267 10.219L14.4463 8.5H13.7563C13.3421 8.5 13.0063 8.16421 13.0063 7.75C13.0063 7.33579 13.3421 7 13.7563 7H16.2575C16.4564 7 16.6472 7.07902 16.7878 7.21967Z" fill="#212121"/>
<path d="M7.00696 16.2499C7.00696 16.4488 7.08598 16.6396 7.22663 16.7802C7.36728 16.9209 7.55805 16.9999 7.75696 16.9999H10.2582C10.6724 16.9999 11.0082 16.6641 11.0082 16.2499C11.0082 15.8357 10.6724 15.4999 10.2582 15.4999H9.56741L11.2874 13.7797C11.5802 13.4868 11.5802 13.0119 11.2873 12.719C10.9944 12.4261 10.5195 12.4262 10.2266 12.7191L8.50696 14.439V13.7499C8.50696 13.3357 8.17117 12.9999 7.75696 12.9999C7.34275 12.9999 7.00696 13.3357 7.00696 13.7499V16.2499Z" fill="#212121"/>
<path d="M2.00696 6.75C2.00696 5.23122 3.23818 4 4.75696 4H19.257C20.7758 4 22.007 5.23122 22.007 6.75V17.25C22.007 18.7688 20.7758 20 19.257 20H4.75696C3.23818 20 2.00696 18.7688 2.00696 17.25V6.75ZM4.75696 5.5C4.0666 5.5 3.50696 6.05964 3.50696 6.75V17.25C3.50696 17.9404 4.0666 18.5 4.75696 18.5H19.257C19.9474 18.5 20.507 17.9404 20.507 17.25V6.75C20.507 6.05964 19.9474 5.5 19.257 5.5H4.75696Z" fill="#212121"/>
</svg>
