<svg width="32" height="32" viewBox="0 0 32 32" fill="none" xmlns="http://www.w3.org/2000/svg">
<path d="M21.3 6.15C24.4688 6.15 27.0438 8.73125 27.0438 11.9187C27.0438 13.5562 26.3625 15.0312 25.275 16.0812L16 25.4438L6.5625 15.9125C5.575 14.875 4.9625 13.4688 4.9625 11.9187C4.9625 8.73125 7.53125 6.15 10.7063 6.15C13.0938 6.15 15.1375 7.6125 16.0063 9.7C16.8625 7.61875 18.9125 6.15 21.3 6.15ZM21.3 5.1875C19.1875 5.1875 17.25 6.175 16 7.8C14.75 6.175 12.8125 5.1875 10.7 5.1875C7.00625 5.1875 4 8.20625 4 11.9187C4 13.6625 4.6625 15.3187 5.86875 16.5812L15.3188 26.125L16 26.8125L16.6812 26.125L25.95 16.7625C27.2625 15.4938 28 13.7688 28 11.9187C28 8.20625 24.9937 5.1875 21.3 5.1875Z" fill="black"/>
</svg>
