<svg width="16" height="17" viewBox="0 0 16 17" fill="none" xmlns="http://www.w3.org/2000/svg">
<g clip-path="url(#clip0_424_2530)">
<path d="M14.7762 9.96819C13.8451 9.96825 13.0838 9.41734 12.5794 8.9089C11.9513 8.27562 11.3044 7.97087 10.6561 8.00222C9.65511 8.05109 8.95804 8.8929 8.95111 8.9014C8.86401 9.00828 8.7067 9.02469 8.59964 8.93787C8.49257 8.85103 8.47586 8.69412 8.56245 8.58687C8.59611 8.54522 9.40064 7.56565 10.6264 7.50306C11.4238 7.46253 12.2005 7.81687 12.9344 8.55678C13.6747 9.30303 14.4374 9.59353 15.2016 9.41972C15.3363 9.38912 15.4702 9.47347 15.5008 9.60809C15.5314 9.74272 15.447 9.87669 15.3124 9.90728C15.1282 9.94915 14.9492 9.96819 14.7762 9.96819Z" fill="#2F323E"/>
<path d="M13.507 12.75C13.3689 12.75 13.257 12.638 13.257 12.5V5.49995C13.257 5.36189 13.3689 5.24995 13.507 5.24995C13.645 5.24995 13.757 5.36189 13.757 5.49995V12.5C13.757 12.638 13.645 12.75 13.507 12.75Z" fill="#2F323E"/>
<path d="M12.257 12.75C12.1189 12.75 12.007 12.638 12.007 12.5V4.49997C12.007 4.36191 12.1189 4.24997 12.257 4.24997C12.395 4.24997 12.507 4.36191 12.507 4.49997V12.5C12.507 12.638 12.395 12.75 12.257 12.75Z" fill="#2F323E"/>
<path d="M11.007 12.75C10.8689 12.75 10.757 12.638 10.757 12.5V3.49998C10.757 3.36192 10.8689 3.24998 11.007 3.24998C11.145 3.24998 11.257 3.36192 11.257 3.49998V12.5C11.257 12.638 11.145 12.75 11.007 12.75Z" fill="#2F323E"/>
<path d="M9.75696 12.7499C9.6189 12.7499 9.50696 12.638 9.50696 12.4999V3.99994C9.50696 3.86188 9.6189 3.74994 9.75696 3.74994C9.89502 3.74994 10.007 3.86188 10.007 3.99994V12.4999C10.007 12.638 9.89502 12.7499 9.75696 12.7499Z" fill="#2F323E"/>
<path d="M10.007 4.74997H9.50696C9.3689 4.74997 9.25696 4.63803 9.25696 4.49997C9.25696 4.36191 9.3689 4.24997 9.50696 4.24997H10.007C10.145 4.24997 10.257 4.36191 10.257 4.49997C10.257 4.63803 10.145 4.74997 10.007 4.74997Z" fill="#2F323E"/>
<path d="M11.257 4.24994H10.757C10.6189 4.24994 10.507 4.138 10.507 3.99994C10.507 3.86188 10.6189 3.74994 10.757 3.74994H11.257C11.395 3.74994 11.507 3.86188 11.507 3.99994C11.507 4.138 11.395 4.24994 11.257 4.24994Z" fill="#2F323E"/>
<path d="M12.507 5.25H12.007C11.8689 5.25 11.757 5.13806 11.757 5C11.757 4.86194 11.8689 4.75 12.007 4.75H12.507C12.645 4.75 12.757 4.86194 12.757 5C12.757 5.13806 12.645 5.25 12.507 5.25Z" fill="#2F323E"/>
<path d="M8.75696 14.75L14.507 14.75L14.507 12.5L8.75696 12.5L8.75696 14.75Z" fill="#959DC5"/>
<path d="M1.23767 9.96816C1.06461 9.96816 0.88573 9.94916 0.701543 9.90728C0.566886 9.87669 0.482574 9.74272 0.513168 9.6081C0.543761 9.47347 0.677793 9.38919 0.812355 9.41972C1.57651 9.59353 2.33923 9.30303 3.07948 8.55678C3.81339 7.81688 4.58973 7.4625 5.38751 7.50306C6.61329 7.56566 7.41782 8.54519 7.45148 8.58688C7.53823 8.69428 7.52145 8.85169 7.41404 8.93844C7.30679 9.02506 7.14967 9.00847 7.06282 8.90141C7.05589 8.89291 6.35882 8.0511 5.35786 8.00222C4.70951 7.97078 4.06264 8.27566 3.43448 8.90891C2.93014 9.41728 2.16873 9.96816 1.23767 9.96816Z" fill="#2F323E"/>
<path d="M2.50696 12.75C2.3689 12.75 2.25696 12.638 2.25696 12.5V5.49995C2.25696 5.36189 2.3689 5.24995 2.50696 5.24995C2.64502 5.24995 2.75696 5.36189 2.75696 5.49995V12.5C2.75696 12.638 2.64502 12.75 2.50696 12.75Z" fill="#2F323E"/>
<path d="M3.75696 12.75C3.6189 12.75 3.50696 12.638 3.50696 12.5V4.49997C3.50696 4.36191 3.6189 4.24997 3.75696 4.24997C3.89502 4.24997 4.00696 4.36191 4.00696 4.49997V12.5C4.00696 12.638 3.89502 12.75 3.75696 12.75Z" fill="#2F323E"/>
<path d="M5.00696 12.75C4.8689 12.75 4.75696 12.638 4.75696 12.5V3.49998C4.75696 3.36192 4.8689 3.24998 5.00696 3.24998C5.14502 3.24998 5.25696 3.36192 5.25696 3.49998V12.5C5.25696 12.638 5.14502 12.75 5.00696 12.75Z" fill="#2F323E"/>
<path d="M6.25696 12.7499C6.1189 12.7499 6.00696 12.638 6.00696 12.4999V3.99994C6.00696 3.86188 6.1189 3.74994 6.25696 3.74994C6.39502 3.74994 6.50696 3.86188 6.50696 3.99994V12.4999C6.50696 12.638 6.39502 12.7499 6.25696 12.7499Z" fill="#2F323E"/>
<path d="M6.50696 4.74997H6.00696C5.8689 4.74997 5.75696 4.63803 5.75696 4.49997C5.75696 4.36191 5.8689 4.24997 6.00696 4.24997H6.50696C6.64502 4.24997 6.75696 4.36191 6.75696 4.49997C6.75696 4.63803 6.64502 4.74997 6.50696 4.74997Z" fill="#2F323E"/>
<path d="M5.25696 4.24994H4.75696C4.6189 4.24994 4.50696 4.138 4.50696 3.99994C4.50696 3.86188 4.6189 3.74994 4.75696 3.74994H5.25696C5.39502 3.74994 5.50696 3.86188 5.50696 3.99994C5.50696 4.138 5.39502 4.24994 5.25696 4.24994Z" fill="#2F323E"/>
<path d="M4.00696 5.25H3.50696C3.3689 5.25 3.25696 5.13806 3.25696 5C3.25696 4.86194 3.3689 4.75 3.50696 4.75H4.00696C4.14502 4.75 4.25696 4.86194 4.25696 5C4.25696 5.13806 4.14502 5.25 4.00696 5.25Z" fill="#2F323E"/>
<path d="M7.25696 12.4999H1.50696V14.7499H7.25696V12.4999Z" fill="#959DC5"/>
<path d="M7.25696 15H0.756958C0.618896 15 0.506958 14.888 0.506958 14.75V7.19402C0.506958 7.11783 0.541708 7.0458 0.601333 6.99836C0.660958 6.95089 0.738958 6.93327 0.813208 6.95043C1.57615 7.12661 2.33818 6.83168 3.07811 6.07386C3.81158 5.32264 4.58821 4.96246 5.38561 5.00302C6.61358 5.06558 7.41902 6.06183 7.45271 6.10421C7.48786 6.14846 7.50699 6.20327 7.50699 6.25977L7.50696 14.75C7.50696 14.888 7.39505 15 7.25696 15ZM1.00696 14.5H7.00696V6.35343C6.82449 6.15461 6.1974 5.54321 5.35608 5.50218C4.70958 5.47046 4.0633 5.78049 3.43583 6.42318C2.9314 6.9398 2.16958 7.49955 1.23777 7.49958C1.16196 7.49958 1.08496 7.49586 1.00693 7.48814L1.00696 14.5Z" fill="#2F323E"/>
<path d="M7.25696 7.24998C7.1189 7.24998 7.00696 7.13805 7.00696 6.99998V2.24998C7.00696 2.11192 7.1189 1.99998 7.25696 1.99998C7.39502 1.99998 7.50696 2.11192 7.50696 2.24998V6.99998C7.50696 7.13805 7.39502 7.24998 7.25696 7.24998Z" fill="#2F323E"/>
<path d="M15.257 15H8.75696C8.6189 15 8.50696 14.888 8.50696 14.75V6.25975C8.50696 6.20325 8.52608 6.14844 8.56124 6.10419C8.59493 6.06181 9.40036 5.06559 10.6283 5.003C11.4261 4.96259 12.2024 5.32262 12.9358 6.07384C13.6757 6.83165 14.4379 7.12669 15.2007 6.9504C15.2749 6.93328 15.353 6.9509 15.4126 6.99834C15.4722 7.04578 15.507 7.11781 15.507 7.194V14.75C15.507 14.888 15.395 15 15.257 15ZM9.00696 14.5H15.007V7.48759C14.3694 7.54922 13.5037 7.37125 12.5781 6.42315C11.9506 5.78047 11.3046 5.47047 10.6578 5.50215C9.8168 5.54315 9.18986 6.15415 9.00693 6.35344L9.00696 14.5Z" fill="#2F323E"/>
<path d="M8.75696 7.24998C8.6189 7.24998 8.50696 7.13805 8.50696 6.99998V2.24998C8.50696 2.11192 8.6189 1.99998 8.75696 1.99998C8.89502 1.99998 9.00696 2.11192 9.00696 2.24998V6.99998C9.00696 7.13805 8.89502 7.24998 8.75696 7.24998Z" fill="#2F323E"/>
<path d="M7.50696 2.99994H7.00696C6.8689 2.99994 6.75696 2.888 6.75696 2.74994C6.75696 2.61188 6.8689 2.49994 7.00696 2.49994H7.50696C7.64502 2.49994 7.75696 2.61188 7.75696 2.74994C7.75696 2.888 7.64502 2.99994 7.50696 2.99994Z" fill="#2F323E"/>
<path d="M9.00696 2.99994H8.50696C8.3689 2.99994 8.25696 2.888 8.25696 2.74994C8.25696 2.61188 8.3689 2.49994 8.50696 2.49994H9.00696C9.14502 2.49994 9.25696 2.61188 9.25696 2.74994C9.25696 2.888 9.14502 2.99994 9.00696 2.99994Z" fill="#2F323E"/>
<path d="M1.00696 5.74995C0.868896 5.74995 0.756958 5.63802 0.756958 5.49995V1.74995C0.756958 1.61189 0.868896 1.49995 1.00696 1.49995C1.14502 1.49995 1.25696 1.61189 1.25696 1.74995V5.49995C1.25696 5.63802 1.14502 5.74995 1.00696 5.74995Z" fill="#2F323E"/>
<path d="M1.75696 15.25H0.256958V5.71045C0.256958 5.58145 0.329833 5.46355 0.445208 5.40586L0.694802 5.28105C0.735677 5.26061 0.780771 5.24995 0.826458 5.24995H1.18746C1.23318 5.24995 1.27824 5.26061 1.31911 5.28105L1.56871 5.40586C1.68408 5.46355 1.75696 5.58145 1.75696 5.71045V15.25Z" fill="#727897"/>
<path d="M0.256958 3.75L1.00696 2.25L1.75696 3.75L1.00696 4.5L0.256958 3.75Z" fill="#E6C067"/>
<path d="M1.00696 6.24994C0.868896 6.24994 0.756958 6.36188 0.756958 6.49994C0.756958 6.638 0.868896 6.74994 1.00696 6.74994H1.75696V6.24994H1.00696Z" fill="#2F323E"/>
<path d="M1.00696 8.24998C0.868896 8.24998 0.756958 8.36192 0.756958 8.49998C0.756958 8.63805 0.868896 8.74998 1.00696 8.74998H1.75696V8.24998H1.00696Z" fill="#2F323E"/>
<path d="M1.00696 7.25H0.256958V7.75H1.00696C1.14502 7.75 1.25696 7.63806 1.25696 7.5C1.25696 7.36194 1.14502 7.25 1.00696 7.25Z" fill="#2F323E"/>
<path d="M1.00696 10.25C0.868896 10.25 0.756958 10.3619 0.756958 10.5C0.756958 10.638 0.868896 10.75 1.00696 10.75H1.75696V10.25H1.00696Z" fill="#2F323E"/>
<path d="M1.00696 9.24997H0.256958V9.74997H1.00696C1.14502 9.74997 1.25696 9.63803 1.25696 9.49997C1.25696 9.36191 1.14502 9.24997 1.00696 9.24997Z" fill="#2F323E"/>
<path d="M1.00696 12.25C0.868896 12.25 0.756958 12.3619 0.756958 12.5C0.756958 12.6381 0.868896 12.75 1.00696 12.75H1.75696V12.25H1.00696Z" fill="#2F323E"/>
<path d="M1.00696 11.2499H0.256958V11.7499H1.00696C1.14502 11.7499 1.25696 11.638 1.25696 11.4999C1.25696 11.3619 1.14502 11.2499 1.00696 11.2499Z" fill="#2F323E"/>
<path d="M1.00696 14.25C0.868896 14.25 0.756958 14.3619 0.756958 14.5C0.756958 14.638 0.868896 14.75 1.00696 14.75H1.75696V14.25H1.00696Z" fill="#2F323E"/>
<path d="M1.00696 13.25H0.256958V13.75H1.00696C1.14502 13.75 1.25696 13.638 1.25696 13.5C1.25696 13.3619 1.14502 13.25 1.00696 13.25Z" fill="#2F323E"/>
<path d="M15.007 5.74995C14.8689 5.74995 14.757 5.63802 14.757 5.49995V1.74995C14.757 1.61189 14.8689 1.49995 15.007 1.49995C15.145 1.49995 15.257 1.61189 15.257 1.74995V5.49995C15.257 5.63802 15.145 5.74995 15.007 5.74995Z" fill="#2F323E"/>
<path d="M14.257 15.25H15.757V5.71045C15.757 5.58145 15.6841 5.46355 15.5687 5.40586L15.3191 5.28105C15.2782 5.26061 15.2331 5.24995 15.1875 5.24995H14.8265C14.7808 5.24995 14.7357 5.26061 14.6948 5.28105L14.4452 5.40586C14.3298 5.46355 14.257 5.58145 14.257 5.71045V15.25Z" fill="#727897"/>
<path d="M15.757 3.75L15.007 2.25L14.257 3.75L15.007 4.5L15.757 3.75Z" fill="#E6C067"/>
<path d="M15.007 6.24994H14.257V6.74994H15.007C15.145 6.74994 15.257 6.638 15.257 6.49994C15.257 6.36188 15.145 6.24994 15.007 6.24994Z" fill="#2F323E"/>
<path d="M15.007 8.24998H14.257V8.74998H15.007C15.145 8.74998 15.257 8.63805 15.257 8.49998C15.257 8.36192 15.145 8.24998 15.007 8.24998Z" fill="#2F323E"/>
<path d="M15.007 7.25C14.8689 7.25 14.757 7.36194 14.757 7.5C14.757 7.63806 14.8689 7.75 15.007 7.75H15.757V7.25H15.007Z" fill="#2F323E"/>
<path d="M15.007 10.25H14.257V10.75H15.007C15.145 10.75 15.257 10.638 15.257 10.5C15.257 10.3619 15.145 10.25 15.007 10.25Z" fill="#2F323E"/>
<path d="M15.007 9.24997C14.8689 9.24997 14.757 9.36191 14.757 9.49997C14.757 9.63803 14.8689 9.74997 15.007 9.74997H15.757V9.24997H15.007Z" fill="#2F323E"/>
<path d="M15.007 12.25H14.257V12.75H15.007C15.145 12.75 15.257 12.6381 15.257 12.5C15.257 12.3619 15.145 12.25 15.007 12.25Z" fill="#2F323E"/>
<path d="M15.007 11.2499C14.8689 11.2499 14.757 11.3619 14.757 11.4999C14.757 11.638 14.8689 11.7499 15.007 11.7499H15.757V11.2499H15.007Z" fill="#2F323E"/>
<path d="M15.007 14.25H14.257V14.75H15.007C15.145 14.75 15.257 14.638 15.257 14.5C15.257 14.3619 15.145 14.25 15.007 14.25Z" fill="#2F323E"/>
<path d="M15.007 13.25C14.8689 13.25 14.757 13.3619 14.757 13.5C14.757 13.638 14.8689 13.75 15.007 13.75H15.757V13.25H15.007Z" fill="#2F323E"/>
<path d="M15.6805 5.18225L15.431 5.05747C15.3765 5.03022 15.3172 5.01241 15.2567 5.00459C15.2568 5.00303 15.257 5.00153 15.257 4.99997V4.6035L15.9337 3.92672C16.0098 3.85063 16.0287 3.73441 15.9806 3.63816L15.257 2.19097V1.74997C15.257 1.61191 15.145 1.49997 15.007 1.49997C14.8689 1.49997 14.757 1.61191 14.757 1.74997V2.19097L14.0334 3.63819C13.9852 3.73444 14.0041 3.85069 14.0802 3.92675L14.757 4.6035V4.99997C14.757 5.00153 14.7572 5.00303 14.7572 5.00459C14.6967 5.01241 14.6375 5.03019 14.583 5.05744L14.3334 5.18222C14.1321 5.28291 14.007 5.48528 14.007 5.71041V6.84063C13.9235 6.80591 13.8401 6.76556 13.757 6.71947V5.49997C13.757 5.36191 13.645 5.24997 13.507 5.24997C13.3689 5.24997 13.257 5.36191 13.257 5.49997V6.37247C13.1495 6.28253 13.0424 6.18306 12.9358 6.07388C12.7944 5.92903 12.6514 5.79891 12.507 5.68325V5.24997C12.645 5.24997 12.757 5.13803 12.757 4.99997C12.757 4.86191 12.645 4.74997 12.507 4.74997V4.49997C12.507 4.36191 12.395 4.24997 12.257 4.24997C12.1189 4.24997 12.007 4.36191 12.007 4.49997V4.74997C11.8689 4.74997 11.757 4.86191 11.757 4.99997C11.757 5.13803 11.8689 5.24997 12.007 5.24997V5.34431C11.7602 5.20675 11.51 5.11038 11.257 5.05525V4.24997C11.395 4.24997 11.507 4.13803 11.507 3.99997C11.507 3.86191 11.395 3.74997 11.257 3.74997V3.49997C11.257 3.36191 11.145 3.24997 11.007 3.24997C10.8689 3.24997 10.757 3.36191 10.757 3.49997V3.74997C10.6189 3.74997 10.507 3.86191 10.507 3.99997C10.507 4.13803 10.6189 4.24997 10.757 4.24997V5.00022C10.7141 5.00006 10.6713 5.00084 10.6283 5.00303C10.4066 5.01431 10.199 5.05634 10.007 5.11738V4.74997C10.145 4.74997 10.257 4.63803 10.257 4.49997C10.257 4.36191 10.145 4.24997 10.007 4.24997V3.99997C10.007 3.86191 9.89502 3.74997 9.75696 3.74997C9.6189 3.74997 9.50696 3.86191 9.50696 3.99997V4.24997C9.3689 4.24997 9.25696 4.36191 9.25696 4.49997C9.25696 4.63803 9.3689 4.74997 9.50696 4.74997V5.33244C9.31311 5.43834 9.14527 5.55697 9.00696 5.66909V2.99997C9.14502 2.99997 9.25696 2.88803 9.25696 2.74997C9.25696 2.61191 9.14502 2.49997 9.00696 2.49997V2.24997C9.00696 2.11191 8.89502 1.99997 8.75696 1.99997C8.6189 1.99997 8.50696 2.11191 8.50696 2.24997V2.49997C8.3689 2.49997 8.25696 2.61191 8.25696 2.74997C8.25696 2.88803 8.3689 2.99997 8.50696 2.99997V6.25903C8.50696 6.25928 8.50693 6.2595 8.50693 6.25975L8.50696 14.75C8.50696 14.888 8.6189 15 8.75696 15H14.007V15.25C14.007 15.388 14.1189 15.5 14.257 15.5H15.757C15.895 15.5 16.007 15.388 16.007 15.25V5.71044C16.007 5.48531 15.8819 5.28291 15.6805 5.18225ZM12.507 6.35203C12.5307 6.37531 12.5544 6.39894 12.5781 6.42319C12.809 6.65972 13.0361 6.84766 13.257 6.9965V8.85184C13.149 8.76303 13.0415 8.66472 12.9344 8.55681C12.7935 8.41472 12.6509 8.28697 12.507 8.17334V6.35203ZM12.507 8.83753C12.5311 8.86091 12.5553 8.88456 12.5795 8.90891C12.77 9.10103 12.9977 9.29881 13.257 9.47094V12.25H12.507V8.83753ZM11.257 5.57059C11.5083 5.64028 11.7586 5.76159 12.007 5.93378V7.83941C11.7602 7.70381 11.51 7.60881 11.257 7.55447V5.57059ZM11.257 8.06953C11.5083 8.138 11.7587 8.25719 12.007 8.42634V12.25H11.257V8.06953ZM10.007 5.64909C10.2038 5.56981 10.4224 5.51366 10.6578 5.50216C10.6909 5.50053 10.7239 5.50003 10.757 5.50022V7.50016C10.7135 7.5 10.67 7.50084 10.6264 7.50306C10.4055 7.51434 10.1985 7.55572 10.007 7.61572V5.64909ZM10.007 8.14688C10.2034 8.06909 10.4212 8.01369 10.6561 8.00222C10.6897 8.00059 10.7233 8.00009 10.757 8.00028V12.25H10.007V8.14688ZM9.00696 6.99997V6.35344C9.08974 6.26325 9.26368 6.08881 9.50696 5.921V7.82769C9.31305 7.93213 9.14521 8.04903 9.00693 8.1595V7.00053C9.00693 7.00034 9.00696 7.00016 9.00696 6.99997ZM9.00693 8.83888C9.09021 8.74969 9.26396 8.57856 9.50696 8.41381V12.25H9.00693V8.83888ZM14.007 14.5H9.00696V12.75H14.007V14.5ZM14.007 12.25H13.757V9.74603C13.8381 9.78153 13.9215 9.81347 14.007 9.84153V12.25ZM14.007 9.31206C13.9235 9.27794 13.8401 9.23831 13.757 9.193V7.27469C13.8417 7.31206 13.9251 7.34394 14.007 7.37097V9.31206ZM14.5611 3.70059L15.007 2.809L15.4528 3.70063L15.007 4.14644L14.5611 3.70059ZM15.507 7.24997H15.007C14.8689 7.24997 14.757 7.36191 14.757 7.49997C14.757 7.63803 14.8689 7.74997 15.007 7.74997H15.507V9.24997H15.007C14.8689 9.24997 14.757 9.36191 14.757 9.49997C14.757 9.63803 14.8689 9.74997 15.007 9.74997H15.507V11.25H15.007C14.8689 11.25 14.757 11.3619 14.757 11.5C14.757 11.638 14.8689 11.75 15.007 11.75H15.507V13.25H15.007C14.8689 13.25 14.757 13.3619 14.757 13.5C14.757 13.638 14.8689 13.75 15.007 13.75H15.507V15H14.507V14.75H15.007C15.145 14.75 15.257 14.638 15.257 14.5C15.257 14.3619 15.145 14.25 15.007 14.25H14.507V12.75H15.007C15.145 12.75 15.257 12.638 15.257 12.5C15.257 12.3619 15.145 12.25 15.007 12.25H14.507V10.75H15.007C15.145 10.75 15.257 10.638 15.257 10.5C15.257 10.3619 15.145 10.25 15.007 10.25H14.507V8.74997H15.007C15.145 8.74997 15.257 8.63803 15.257 8.49997C15.257 8.36191 15.145 8.24997 15.007 8.24997H14.507V6.74997H15.007C15.145 6.74997 15.257 6.63803 15.257 6.49997C15.257 6.36191 15.145 6.24997 15.007 6.24997H14.507V5.71044C14.507 5.67594 14.5261 5.64491 14.557 5.62947L14.8066 5.50466C14.8127 5.50159 14.8196 5.5 14.8265 5.5H15.1875C15.1943 5.5 15.2012 5.50163 15.2073 5.50469L15.4569 5.6295C15.4878 5.64494 15.507 5.67594 15.507 5.71047V7.24997Z" fill="black"/>
<path d="M7.75696 2.74995C7.75696 2.61189 7.64502 2.49995 7.50696 2.49995V2.24995C7.50696 2.11189 7.39502 1.99995 7.25696 1.99995C7.1189 1.99995 7.00696 2.11189 7.00696 2.24995V2.49995C6.8689 2.49995 6.75696 2.61189 6.75696 2.74995C6.75696 2.88802 6.8689 2.99995 7.00696 2.99995V5.66908C6.86865 5.55695 6.7008 5.43833 6.50696 5.33242V4.74995C6.64502 4.74995 6.75696 4.63802 6.75696 4.49995C6.75696 4.36189 6.64502 4.24995 6.50696 4.24995V3.99995C6.50696 3.86189 6.39502 3.74995 6.25696 3.74995C6.1189 3.74995 6.00696 3.86189 6.00696 3.99995V4.24995C5.8689 4.24995 5.75696 4.36189 5.75696 4.49995C5.75696 4.63802 5.8689 4.74995 6.00696 4.74995V5.11736C5.8149 5.05633 5.60727 5.0143 5.38561 5.00302C5.34268 5.00083 5.2998 5.00005 5.25696 5.00017V4.24995C5.39502 4.24995 5.50696 4.13802 5.50696 3.99995C5.50696 3.86189 5.39502 3.74995 5.25696 3.74995V3.49995C5.25696 3.36189 5.14502 3.24995 5.00696 3.24995C4.8689 3.24995 4.75696 3.36189 4.75696 3.49995V3.74995C4.6189 3.74995 4.50696 3.86189 4.50696 3.99995C4.50696 4.13802 4.6189 4.24995 4.75696 4.24995V5.0552C4.50393 5.11033 4.25368 5.20674 4.00696 5.34433V5.24995C4.14502 5.24995 4.25696 5.13802 4.25696 4.99995C4.25696 4.86189 4.14502 4.74995 4.00696 4.74995V4.49995C4.00696 4.36189 3.89502 4.24995 3.75696 4.24995C3.6189 4.24995 3.50696 4.36189 3.50696 4.49995V4.74995C3.3689 4.74995 3.25696 4.86189 3.25696 4.99995C3.25696 5.13802 3.3689 5.24995 3.50696 5.24995V5.68324C3.36252 5.79892 3.21949 5.92905 3.07811 6.07386C2.97152 6.18305 2.86443 6.28195 2.75696 6.3718V5.49995C2.75696 5.36189 2.64502 5.24995 2.50696 5.24995C2.3689 5.24995 2.25696 5.36189 2.25696 5.49995V6.71902C2.1738 6.76499 2.09046 6.80492 2.00696 6.83955V5.71042C2.00696 5.4853 1.88186 5.28289 1.68052 5.18224L1.43096 5.05745C1.37646 5.0302 1.31721 5.01239 1.25674 5.00458C1.25674 5.00302 1.25696 5.00152 1.25696 4.99995V4.60349L1.93374 3.9267C2.00983 3.85061 2.02871 3.73439 1.98058 3.63814L1.25696 2.19095V1.74995C1.25696 1.61189 1.14502 1.49995 1.00696 1.49995C0.868896 1.49995 0.756958 1.61189 0.756958 1.74995V2.19095L0.0333643 3.63814C-0.0147607 3.73439 0.00408301 3.85064 0.080208 3.9267L0.756958 4.60349V4.99995C0.756958 5.00152 0.757177 5.00302 0.757177 5.00458C0.696677 5.01239 0.637458 5.03017 0.582989 5.05742L0.333427 5.1822C0.132052 5.28289 0.00695801 5.4853 0.00695801 5.71042V15.25C0.00695801 15.388 0.118896 15.5 0.256958 15.5H1.75696C1.89502 15.5 2.00696 15.388 2.00696 15.25V15H7.25696C7.39502 15 7.50696 14.888 7.50696 14.75V6.25974C7.50696 6.25949 7.50693 6.25927 7.50693 6.25902V2.99995C7.64502 2.99995 7.75696 2.88802 7.75696 2.74995ZM0.561145 3.70058L1.00696 2.80899L1.45277 3.70061L1.00696 4.14642L0.561145 3.70058ZM1.50696 6.24995H1.00696C0.868896 6.24995 0.756958 6.36189 0.756958 6.49995C0.756958 6.63802 0.868896 6.74995 1.00696 6.74995H1.50696V8.24995H1.00696C0.868896 8.24995 0.756958 8.36189 0.756958 8.49995C0.756958 8.63802 0.868896 8.74995 1.00696 8.74995H1.50696V10.25H1.00696C0.868896 10.25 0.756958 10.3619 0.756958 10.5C0.756958 10.638 0.868896 10.75 1.00696 10.75H1.50696V12.25H1.00696C0.868896 12.25 0.756958 12.3619 0.756958 12.5C0.756958 12.638 0.868896 12.75 1.00696 12.75H1.50696V14.25H1.00696C0.868896 14.25 0.756958 14.3619 0.756958 14.5C0.756958 14.638 0.868896 14.75 1.00696 14.75H1.50696V15H0.506958V13.75H1.00696C1.14502 13.75 1.25696 13.638 1.25696 13.5C1.25696 13.3619 1.14502 13.25 1.00696 13.25H0.506958V11.75H1.00696C1.14502 11.75 1.25696 11.638 1.25696 11.5C1.25696 11.3619 1.14502 11.25 1.00696 11.25H0.506958V9.74995H1.00696C1.14502 9.74995 1.25696 9.63802 1.25696 9.49995C1.25696 9.36189 1.14502 9.24995 1.00696 9.24995H0.506958V7.74995H1.00696C1.14502 7.74995 1.25696 7.63802 1.25696 7.49995C1.25696 7.36189 1.14502 7.24995 1.00696 7.24995H0.506958V5.71042C0.506958 5.67592 0.526145 5.64489 0.55702 5.62945L0.806614 5.50464C0.812739 5.50158 0.819583 5.49999 0.826458 5.49999H1.18746C1.19433 5.49999 1.20118 5.50161 1.2073 5.50467L1.45693 5.62949C1.48777 5.64492 1.50696 5.67592 1.50696 5.71045V6.24995ZM5.25696 5.5002C5.29002 5.50005 5.32305 5.50055 5.35611 5.50214C5.59152 5.51361 5.81015 5.5698 6.00696 5.64908V7.6157C5.81543 7.5557 5.60846 7.51433 5.38752 7.50305C5.34393 7.50083 5.30043 7.50002 5.25696 7.50014V5.5002ZM5.25696 8.00024C5.29058 8.00005 5.32421 8.00055 5.35786 8.0022C5.59271 8.01367 5.81055 8.06911 6.00696 8.14686V12.25H5.25696V8.00024ZM4.00696 5.9338C4.25533 5.76164 4.50568 5.6403 4.75696 5.57061V7.55439C4.50393 7.6087 4.25368 7.7037 4.00696 7.8393V5.9338ZM4.00696 8.4263C4.25524 8.25711 4.50558 8.13792 4.75696 8.06945V12.25H4.00696V8.4263ZM2.75696 6.9953C3.01696 6.82024 3.24493 6.6187 3.43586 6.42314C3.45952 6.39889 3.48324 6.3753 3.50696 6.35199V8.17327C3.36299 8.28686 3.22046 8.41464 3.07949 8.55677C2.97243 8.6647 2.8649 8.76258 2.75696 8.85133V6.9953ZM2.75696 9.47127C3.01636 9.29911 3.24386 9.10108 3.43446 8.90889C3.45858 8.88455 3.48277 8.86089 3.50696 8.83752V12.25H2.75696V9.47127ZM2.00696 7.37102C2.0924 7.34255 2.1758 7.31005 2.25696 7.27405V9.19239C2.1738 9.23761 2.09046 9.27739 2.00696 9.31145V7.37102ZM2.00696 9.84152C2.09243 9.81345 2.17577 9.78139 2.25696 9.74586V12.25H2.00696V9.84152ZM2.00696 14.5V12.75H7.00696V14.5H2.00696ZM7.00699 12.25H6.50696V8.4138C6.74996 8.57855 6.92371 8.7497 7.00699 8.83886V12.25ZM7.00699 8.15949C6.86871 8.04902 6.70086 7.93208 6.50696 7.82767V5.92099C6.7504 6.08889 6.92433 6.26339 7.00696 6.35339V6.99995C7.00696 7.00014 7.00699 7.00033 7.00699 7.00055V8.15949Z" fill="black"/>
</g>
<defs>
<clipPath id="clip0_424_2530">
<rect width="16" height="16" fill="white" transform="translate(0.00695801 0.5)"/>
</clipPath>
</defs>
</svg>
