<svg width="24" height="24" viewBox="0 0 24 24" fill="none" xmlns="http://www.w3.org/2000/svg">
<g opacity="0.63">
<path d="M7.55908 18.5C8.89872 19.5612 10.1677 20 11.9999 20C16.0259 20 19.3481 16.9463 19.8337 13H21.0114C21.7996 13 22.2697 12.1099 21.8325 11.4453L19.729 8.24804C19.3384 7.6543 18.4774 7.6543 18.0868 8.24804L15.9833 11.4453C15.5461 12.1099 16.0162 13 16.8044 13H17.8392C17.3694 15.8377 14.9338 18 11.9999 18C10.921 18 9.9095 17.7076 9.03836 17.1967L7.55908 18.5Z" fill="black"/>
<path d="M14.9615 6.80326C14.0904 6.2924 13.0789 6 12 6C9.06607 6 6.63054 8.16229 6.16072 11H7.19546C7.98366 11 8.45379 11.8901 8.01658 12.5547L5.91311 15.7519C5.52249 16.3457 4.66149 16.3457 4.27087 15.7519L2.1674 12.5547C1.73019 11.8901 2.20032 11 2.98852 11H4.16621C4.65184 7.05369 7.97399 4 12 4C13.8322 4 15.1012 4.43881 16.4409 5.5L14.9615 6.80326Z" fill="black"/>
</g>
</svg>
