<svg width="25" height="25" viewBox="0 0 25 25" fill="none" xmlns="http://www.w3.org/2000/svg">
<path d="M17.0819 8.375C17.0319 8.2 16.9319 8 16.8569 7.825C15.9569 5.65 14.0069 4.9 12.4319 4.9C10.3069 4.9 7.98195 6.325 7.68195 9.25V9.85C7.68195 9.875 7.68195 10.1 7.70695 10.2C7.88195 11.6 8.98195 13.075 9.80695 14.475C10.6819 15.975 11.6069 17.425 12.5069 18.9C13.0569 17.95 13.6319 16.975 14.1819 16.05C14.3319 15.775 14.5069 15.5 14.6569 15.25C14.7569 15.075 14.9569 14.9 15.0319 14.75C15.9069 13.125 17.3319 11.5 17.3319 9.9V9.25C17.3069 9.025 17.1069 8.4 17.0819 8.375ZM12.4569 11.375C11.8319 11.375 11.1569 11.075 10.8069 10.2C10.7569 10.075 10.7569 9.8 10.7569 9.775V9.4C10.7569 8.3 11.6819 7.8 12.5069 7.8C13.5069 7.8 14.2819 8.6 14.2819 9.6C14.2819 10.575 13.4569 11.375 12.4569 11.375Z" fill="#0076D6"/>
</svg>
