<svg width="24" height="24" viewBox="0 0 24 24" fill="none" xmlns="http://www.w3.org/2000/svg">
<g opacity="0.63">
<path d="M7.56616 18.5C8.9058 19.5612 10.1748 20 12.007 20C16.033 20 19.3552 16.9463 19.8408 13H21.0185C21.8067 13 22.2768 12.1099 21.8396 11.4453L19.7361 8.24809C19.3455 7.65435 18.4845 7.65435 18.0939 8.24809L15.9904 11.4453C15.5532 12.1099 16.0233 13 16.8115 13H17.8463C17.3765 15.8377 14.9409 18 12.007 18C10.9281 18 9.91658 17.7076 9.04544 17.1967L7.56616 18.5Z" fill="black"/>
<path d="M14.9685 6.80326C14.0974 6.2924 13.0859 6 12.007 6C9.07303 6 6.6375 8.16229 6.16768 11H7.20242C7.99062 11 8.46075 11.8901 8.02354 12.5547L5.92007 15.7519C5.52945 16.3457 4.66845 16.3457 4.27783 15.7519L2.17436 12.5547C1.73715 11.8901 2.20728 11 2.99548 11H4.17317C4.6588 7.05369 7.98095 4 12.007 4C13.8392 4 15.1082 4.43881 16.4479 5.5L14.9685 6.80326Z" fill="black"/>
</g>
</svg>
