<svg width="16" height="17" viewBox="0 0 16 17" fill="none" xmlns="http://www.w3.org/2000/svg">
<g clip-path="url(#clip0_114_411)">
<path d="M14.7692 9.96825C13.8381 9.96831 13.0768 9.4174 12.5724 8.90897C11.9442 8.27568 11.2974 7.97093 10.6491 8.00228C9.64809 8.05115 8.95102 8.89297 8.94409 8.90147C8.85699 9.00834 8.69968 9.02475 8.59262 8.93793C8.48555 8.85109 8.46884 8.69418 8.55543 8.58693C8.58909 8.54528 9.39362 7.56572 10.6194 7.50312C11.4168 7.46259 12.1935 7.81693 12.9274 8.55684C13.6677 9.30309 14.4304 9.59359 15.1946 9.41978C15.3292 9.38918 15.4631 9.47353 15.4937 9.60815C15.5243 9.74278 15.44 9.87675 15.3054 9.90734C15.1212 9.94921 14.9422 9.96825 14.7692 9.96825Z" fill="#2F323E"/>
<path d="M13.5 12.75C13.3619 12.75 13.25 12.6381 13.25 12.5V5.5C13.25 5.36194 13.3619 5.25 13.5 5.25C13.6381 5.25 13.75 5.36194 13.75 5.5V12.5C13.75 12.6381 13.6381 12.75 13.5 12.75Z" fill="#2F323E"/>
<path d="M12.25 12.75C12.1119 12.75 12 12.6381 12 12.5V4.5C12 4.36194 12.1119 4.25 12.25 4.25C12.3881 4.25 12.5 4.36194 12.5 4.5V12.5C12.5 12.6381 12.3881 12.75 12.25 12.75Z" fill="#2F323E"/>
<path d="M11 12.75C10.8619 12.75 10.75 12.6381 10.75 12.5V3.5C10.75 3.36194 10.8619 3.25 11 3.25C11.1381 3.25 11.25 3.36194 11.25 3.5V12.5C11.25 12.6381 11.1381 12.75 11 12.75Z" fill="#2F323E"/>
<path d="M9.75 12.75C9.61194 12.75 9.5 12.6381 9.5 12.5V4C9.5 3.86194 9.61194 3.75 9.75 3.75C9.88806 3.75 10 3.86194 10 4V12.5C10 12.6381 9.88806 12.75 9.75 12.75Z" fill="#2F323E"/>
<path d="M10 4.75H9.5C9.36194 4.75 9.25 4.63806 9.25 4.5C9.25 4.36194 9.36194 4.25 9.5 4.25H10C10.1381 4.25 10.25 4.36194 10.25 4.5C10.25 4.63806 10.1381 4.75 10 4.75Z" fill="#2F323E"/>
<path d="M11.25 4.25H10.75C10.6119 4.25 10.5 4.13806 10.5 4C10.5 3.86194 10.6119 3.75 10.75 3.75H11.25C11.3881 3.75 11.5 3.86194 11.5 4C11.5 4.13806 11.3881 4.25 11.25 4.25Z" fill="#2F323E"/>
<path d="M12.5 5.25H12C11.8619 5.25 11.75 5.13806 11.75 5C11.75 4.86194 11.8619 4.75 12 4.75H12.5C12.6381 4.75 12.75 4.86194 12.75 5C12.75 5.13806 12.6381 5.25 12.5 5.25Z" fill="#2F323E"/>
<path d="M8.75 14.75L14.5 14.75L14.5 12.5L8.75 12.5L8.75 14.75Z" fill="#959DC5"/>
<path d="M1.23077 9.96822C1.05771 9.96822 0.878833 9.94922 0.694646 9.90734C0.559989 9.87675 0.475677 9.74278 0.506271 9.60816C0.536864 9.47353 0.670896 9.38925 0.805458 9.41978C1.56961 9.59359 2.33233 9.30309 3.07258 8.55684C3.80649 7.81694 4.58283 7.46256 5.38061 7.50313C6.6064 7.56572 7.41093 8.54525 7.44458 8.58694C7.53133 8.69434 7.51455 8.85175 7.40715 8.9385C7.2999 9.02513 7.14277 9.00853 7.05593 8.90147C7.04899 8.89297 6.35193 8.05116 5.35096 8.00228C4.70261 7.97084 4.05574 8.27572 3.42758 8.90897C2.92324 9.41734 2.16183 9.96822 1.23077 9.96822Z" fill="#2F323E"/>
<path d="M2.5 12.75C2.36194 12.75 2.25 12.6381 2.25 12.5V5.5C2.25 5.36194 2.36194 5.25 2.5 5.25C2.63806 5.25 2.75 5.36194 2.75 5.5V12.5C2.75 12.6381 2.63806 12.75 2.5 12.75Z" fill="#2F323E"/>
<path d="M3.75 12.75C3.61194 12.75 3.5 12.6381 3.5 12.5V4.5C3.5 4.36194 3.61194 4.25 3.75 4.25C3.88806 4.25 4 4.36194 4 4.5V12.5C4 12.6381 3.88806 12.75 3.75 12.75Z" fill="#2F323E"/>
<path d="M5 12.75C4.86194 12.75 4.75 12.6381 4.75 12.5V3.5C4.75 3.36194 4.86194 3.25 5 3.25C5.13806 3.25 5.25 3.36194 5.25 3.5V12.5C5.25 12.6381 5.13806 12.75 5 12.75Z" fill="#2F323E"/>
<path d="M6.25 12.75C6.11194 12.75 6 12.6381 6 12.5V4C6 3.86194 6.11194 3.75 6.25 3.75C6.38806 3.75 6.5 3.86194 6.5 4V12.5C6.5 12.6381 6.38806 12.75 6.25 12.75Z" fill="#2F323E"/>
<path d="M6.5 4.75H6C5.86194 4.75 5.75 4.63806 5.75 4.5C5.75 4.36194 5.86194 4.25 6 4.25H6.5C6.63806 4.25 6.75 4.36194 6.75 4.5C6.75 4.63806 6.63806 4.75 6.5 4.75Z" fill="#2F323E"/>
<path d="M5.25 4.25H4.75C4.61194 4.25 4.5 4.13806 4.5 4C4.5 3.86194 4.61194 3.75 4.75 3.75H5.25C5.38806 3.75 5.5 3.86194 5.5 4C5.5 4.13806 5.38806 4.25 5.25 4.25Z" fill="#2F323E"/>
<path d="M4 5.25H3.5C3.36194 5.25 3.25 5.13806 3.25 5C3.25 4.86194 3.36194 4.75 3.5 4.75H4C4.13806 4.75 4.25 4.86194 4.25 5C4.25 5.13806 4.13806 5.25 4 5.25Z" fill="#2F323E"/>
<path d="M7.25 12.5H1.5V14.75H7.25V12.5Z" fill="#959DC5"/>
<path d="M7.25 15H0.75C0.611937 15 0.5 14.8881 0.5 14.75V7.19408C0.5 7.11789 0.53475 7.04586 0.594375 6.99842C0.654 6.95096 0.732 6.93333 0.80625 6.95049C1.56919 7.12667 2.33122 6.83174 3.07116 6.07392C3.80463 5.32271 4.58125 4.96252 5.37866 5.00308C6.60663 5.06564 7.41206 6.06189 7.44575 6.10427C7.48091 6.14852 7.50003 6.20333 7.50003 6.25983L7.5 14.75C7.5 14.8881 7.38809 15 7.25 15ZM1 14.5H7V6.35349C6.81753 6.15467 6.19044 5.54327 5.34912 5.50224C4.70262 5.47052 4.05634 5.78055 3.42887 6.42324C2.92444 6.93986 2.16263 7.49961 1.23081 7.49964C1.155 7.49964 1.078 7.49592 0.999969 7.4882L1 14.5Z" fill="#2F323E"/>
<path d="M7.25 7.25C7.11194 7.25 7 7.13806 7 7V2.25C7 2.11194 7.11194 2 7.25 2C7.38806 2 7.5 2.11194 7.5 2.25V7C7.5 7.13806 7.38806 7.25 7.25 7.25Z" fill="#2F323E"/>
<path d="M15.25 15H8.75C8.61194 15 8.5 14.8881 8.5 14.75V6.25981C8.5 6.20331 8.51912 6.1485 8.55428 6.10425C8.58797 6.06187 9.39341 5.06565 10.6214 5.00306C11.4191 4.96265 12.1954 5.32268 12.9289 6.0739C13.6688 6.83172 14.4309 7.12675 15.1938 6.95047C15.268 6.93334 15.346 6.95097 15.4057 6.9984C15.4653 7.04584 15.5 7.11787 15.5 7.19406V14.75C15.5 14.8881 15.3881 15 15.25 15ZM9 14.5H15V7.48765C14.3625 7.54928 13.4968 7.37131 12.5711 6.42322C11.9436 5.78053 11.2977 5.47053 10.6508 5.50222C9.80984 5.54322 9.18291 6.15422 8.99997 6.3535L9 14.5Z" fill="#2F323E"/>
<path d="M8.75 7.25C8.61194 7.25 8.5 7.13806 8.5 7V2.25C8.5 2.11194 8.61194 2 8.75 2C8.88806 2 9 2.11194 9 2.25V7C9 7.13806 8.88806 7.25 8.75 7.25Z" fill="#2F323E"/>
<path d="M7.5 3H7C6.86194 3 6.75 2.88806 6.75 2.75C6.75 2.61194 6.86194 2.5 7 2.5H7.5C7.63806 2.5 7.75 2.61194 7.75 2.75C7.75 2.88806 7.63806 3 7.5 3Z" fill="#2F323E"/>
<path d="M9 3H8.5C8.36194 3 8.25 2.88806 8.25 2.75C8.25 2.61194 8.36194 2.5 8.5 2.5H9C9.13806 2.5 9.25 2.61194 9.25 2.75C9.25 2.88806 9.13806 3 9 3Z" fill="#2F323E"/>
<path d="M1 5.75C0.861937 5.75 0.75 5.63806 0.75 5.5V1.75C0.75 1.61194 0.861937 1.5 1 1.5C1.13806 1.5 1.25 1.61194 1.25 1.75V5.5C1.25 5.63806 1.13806 5.75 1 5.75Z" fill="#2F323E"/>
<path d="M1.75 15.25H0.25V5.7105C0.25 5.5815 0.322875 5.46359 0.43825 5.40591L0.687844 5.28109C0.728719 5.26066 0.773813 5.25 0.8195 5.25H1.1805C1.22622 5.25 1.27128 5.26066 1.31216 5.28109L1.56175 5.40591C1.67713 5.46359 1.75 5.5815 1.75 5.7105V15.25Z" fill="#727897"/>
<path d="M0.25 3.75L1 2.25L1.75 3.75L1 4.5L0.25 3.75Z" fill="#E6C067"/>
<path d="M1 6.25C0.861937 6.25 0.75 6.36194 0.75 6.5C0.75 6.63806 0.861937 6.75 1 6.75H1.75V6.25H1Z" fill="#2F323E"/>
<path d="M1 8.25C0.861937 8.25 0.75 8.36194 0.75 8.5C0.75 8.63806 0.861937 8.75 1 8.75H1.75V8.25H1Z" fill="#2F323E"/>
<path d="M1 7.25H0.25V7.75H1C1.13806 7.75 1.25 7.63806 1.25 7.5C1.25 7.36194 1.13806 7.25 1 7.25Z" fill="#2F323E"/>
<path d="M1 10.25C0.861937 10.25 0.75 10.3619 0.75 10.5C0.75 10.6381 0.861937 10.75 1 10.75H1.75V10.25H1Z" fill="#2F323E"/>
<path d="M1 9.25H0.25V9.75H1C1.13806 9.75 1.25 9.63806 1.25 9.5C1.25 9.36194 1.13806 9.25 1 9.25Z" fill="#2F323E"/>
<path d="M1 12.25C0.861937 12.25 0.75 12.3619 0.75 12.5C0.75 12.6381 0.861937 12.75 1 12.75H1.75V12.25H1Z" fill="#2F323E"/>
<path d="M1 11.25H0.25V11.75H1C1.13806 11.75 1.25 11.6381 1.25 11.5C1.25 11.3619 1.13806 11.25 1 11.25Z" fill="#2F323E"/>
<path d="M1 14.25C0.861937 14.25 0.75 14.3619 0.75 14.5C0.75 14.6381 0.861937 14.75 1 14.75H1.75V14.25H1Z" fill="#2F323E"/>
<path d="M1 13.25H0.25V13.75H1C1.13806 13.75 1.25 13.6381 1.25 13.5C1.25 13.3619 1.13806 13.25 1 13.25Z" fill="#2F323E"/>
<path d="M15 5.75C14.8619 5.75 14.75 5.63806 14.75 5.5V1.75C14.75 1.61194 14.8619 1.5 15 1.5C15.1381 1.5 15.25 1.61194 15.25 1.75V5.5C15.25 5.63806 15.1381 5.75 15 5.75Z" fill="#2F323E"/>
<path d="M14.25 15.25H15.75V5.7105C15.75 5.5815 15.6771 5.46359 15.5618 5.40591L15.3122 5.28109C15.2713 5.26066 15.2262 5.25 15.1805 5.25H14.8195C14.7738 5.25 14.7287 5.26066 14.6878 5.28109L14.4382 5.40591C14.3229 5.46359 14.25 5.5815 14.25 5.7105V15.25Z" fill="#727897"/>
<path d="M15.75 3.75L15 2.25L14.25 3.75L15 4.5L15.75 3.75Z" fill="#E6C067"/>
<path d="M15 6.25H14.25V6.75H15C15.1381 6.75 15.25 6.63806 15.25 6.5C15.25 6.36194 15.1381 6.25 15 6.25Z" fill="#2F323E"/>
<path d="M15 8.25H14.25V8.75H15C15.1381 8.75 15.25 8.63806 15.25 8.5C15.25 8.36194 15.1381 8.25 15 8.25Z" fill="#2F323E"/>
<path d="M15 7.25C14.8619 7.25 14.75 7.36194 14.75 7.5C14.75 7.63806 14.8619 7.75 15 7.75H15.75V7.25H15Z" fill="#2F323E"/>
<path d="M15 10.25H14.25V10.75H15C15.1381 10.75 15.25 10.6381 15.25 10.5C15.25 10.3619 15.1381 10.25 15 10.25Z" fill="#2F323E"/>
<path d="M15 9.25C14.8619 9.25 14.75 9.36194 14.75 9.5C14.75 9.63806 14.8619 9.75 15 9.75H15.75V9.25H15Z" fill="#2F323E"/>
<path d="M15 12.25H14.25V12.75H15C15.1381 12.75 15.25 12.6381 15.25 12.5C15.25 12.3619 15.1381 12.25 15 12.25Z" fill="#2F323E"/>
<path d="M15 11.25C14.8619 11.25 14.75 11.3619 14.75 11.5C14.75 11.6381 14.8619 11.75 15 11.75H15.75V11.25H15Z" fill="#2F323E"/>
<path d="M15 14.25H14.25V14.75H15C15.1381 14.75 15.25 14.6381 15.25 14.5C15.25 14.3619 15.1381 14.25 15 14.25Z" fill="#2F323E"/>
<path d="M15 13.25C14.8619 13.25 14.75 13.3619 14.75 13.5C14.75 13.6381 14.8619 13.75 15 13.75H15.75V13.25H15Z" fill="#2F323E"/>
<path d="M15.6736 5.18228L15.424 5.0575C15.3695 5.03025 15.3103 5.01244 15.2498 5.00462C15.2498 5.00306 15.25 5.00156 15.25 5V4.60353L15.9268 3.92675C16.0029 3.85066 16.0217 3.73444 15.9736 3.63819L15.25 2.191V1.75C15.25 1.61194 15.1381 1.5 15 1.5C14.8619 1.5 14.75 1.61194 14.75 1.75V2.191L14.0264 3.63822C13.9783 3.73447 13.9971 3.85072 14.0732 3.92678L14.75 4.60353V5C14.75 5.00156 14.7502 5.00306 14.7502 5.00462C14.6897 5.01244 14.6305 5.03022 14.576 5.05747L14.3265 5.18225C14.1251 5.28294 14 5.48531 14 5.71044V6.84066C13.9165 6.80594 13.8332 6.76559 13.75 6.7195V5.5C13.75 5.36194 13.6381 5.25 13.5 5.25C13.3619 5.25 13.25 5.36194 13.25 5.5V6.3725C13.1425 6.28256 13.0355 6.18309 12.9288 6.07391C12.7874 5.92906 12.6444 5.79894 12.5 5.68328V5.25C12.6381 5.25 12.75 5.13806 12.75 5C12.75 4.86194 12.6381 4.75 12.5 4.75V4.5C12.5 4.36194 12.3881 4.25 12.25 4.25C12.1119 4.25 12 4.36194 12 4.5V4.75C11.8619 4.75 11.75 4.86194 11.75 5C11.75 5.13806 11.8619 5.25 12 5.25V5.34434C11.7533 5.20678 11.5031 5.11041 11.25 5.05528V4.25C11.3881 4.25 11.5 4.13806 11.5 4C11.5 3.86194 11.3881 3.75 11.25 3.75V3.5C11.25 3.36194 11.1381 3.25 11 3.25C10.8619 3.25 10.75 3.36194 10.75 3.5V3.75C10.6119 3.75 10.5 3.86194 10.5 4C10.5 4.13806 10.6119 4.25 10.75 4.25V5.00025C10.7072 5.00009 10.6643 5.00088 10.6213 5.00306C10.3997 5.01434 10.1921 5.05638 10 5.11741V4.75C10.1381 4.75 10.25 4.63806 10.25 4.5C10.25 4.36194 10.1381 4.25 10 4.25V4C10 3.86194 9.88806 3.75 9.75 3.75C9.61194 3.75 9.5 3.86194 9.5 4V4.25C9.36194 4.25 9.25 4.36194 9.25 4.5C9.25 4.63806 9.36194 4.75 9.5 4.75V5.33247C9.30616 5.43838 9.13831 5.557 9 5.66913V3C9.13806 3 9.25 2.88806 9.25 2.75C9.25 2.61194 9.13806 2.5 9 2.5V2.25C9 2.11194 8.88806 2 8.75 2C8.61194 2 8.5 2.11194 8.5 2.25V2.5C8.36194 2.5 8.25 2.61194 8.25 2.75C8.25 2.88806 8.36194 3 8.5 3V6.25906C8.5 6.25931 8.49997 6.25953 8.49997 6.25978L8.5 14.75C8.5 14.8881 8.61194 15 8.75 15H14V15.25C14 15.3881 14.1119 15.5 14.25 15.5H15.75C15.8881 15.5 16 15.3881 16 15.25V5.71047C16 5.48534 15.8749 5.28294 15.6736 5.18228ZM12.5 6.35206C12.5237 6.37534 12.5474 6.39897 12.5711 6.42322C12.8021 6.65975 13.0292 6.84769 13.25 6.99653V8.85188C13.1421 8.76306 13.0345 8.66475 12.9275 8.55684C12.7865 8.41475 12.6439 8.287 12.5 8.17338V6.35206ZM12.5 8.83756C12.5242 8.86094 12.5484 8.88459 12.5725 8.90894C12.7631 9.10106 12.9907 9.29884 13.25 9.47097V12.25H12.5V8.83756ZM11.25 5.57062C11.5013 5.64031 11.7517 5.76163 12 5.93381V7.83944C11.7533 7.70384 11.503 7.60884 11.25 7.5545V5.57062ZM11.25 8.06956C11.5014 8.13803 11.7517 8.25722 12 8.42637V12.25H11.25V8.06956ZM10 5.64913C10.1968 5.56984 10.4154 5.51369 10.6508 5.50219C10.6839 5.50056 10.717 5.50006 10.75 5.50025V7.50019C10.7065 7.50003 10.663 7.50087 10.6194 7.50309C10.3985 7.51437 10.1915 7.55575 10 7.61575V5.64913ZM10 8.14691C10.1964 8.06913 10.4142 8.01372 10.6491 8.00225C10.6827 8.00063 10.7164 8.00012 10.75 8.00031V12.25H10V8.14691ZM9 7V6.35347C9.08278 6.26328 9.25672 6.08884 9.5 5.92103V7.82772C9.30609 7.93216 9.13825 8.04906 8.99997 8.15953V7.00056C8.99997 7.00038 9 7.00019 9 7ZM8.99997 8.83891C9.08325 8.74972 9.257 8.57859 9.5 8.41384V12.25H8.99997V8.83891ZM14 14.5H9V12.75H14V14.5ZM14 12.25H13.75V9.74606C13.8312 9.78156 13.9146 9.8135 14 9.84156V12.25ZM14 9.31209C13.9165 9.27797 13.8332 9.23834 13.75 9.19303V7.27472C13.8348 7.31209 13.9181 7.34397 14 7.371V9.31209ZM14.5542 3.70062L15 2.80903L15.4458 3.70066L15 4.14647L14.5542 3.70062ZM15.5 7.25H15C14.8619 7.25 14.75 7.36194 14.75 7.5C14.75 7.63806 14.8619 7.75 15 7.75H15.5V9.25H15C14.8619 9.25 14.75 9.36194 14.75 9.5C14.75 9.63806 14.8619 9.75 15 9.75H15.5V11.25H15C14.8619 11.25 14.75 11.3619 14.75 11.5C14.75 11.6381 14.8619 11.75 15 11.75H15.5V13.25H15C14.8619 13.25 14.75 13.3619 14.75 13.5C14.75 13.6381 14.8619 13.75 15 13.75H15.5V15H14.5V14.75H15C15.1381 14.75 15.25 14.6381 15.25 14.5C15.25 14.3619 15.1381 14.25 15 14.25H14.5V12.75H15C15.1381 12.75 15.25 12.6381 15.25 12.5C15.25 12.3619 15.1381 12.25 15 12.25H14.5V10.75H15C15.1381 10.75 15.25 10.6381 15.25 10.5C15.25 10.3619 15.1381 10.25 15 10.25H14.5V8.75H15C15.1381 8.75 15.25 8.63806 15.25 8.5C15.25 8.36194 15.1381 8.25 15 8.25H14.5V6.75H15C15.1381 6.75 15.25 6.63806 15.25 6.5C15.25 6.36194 15.1381 6.25 15 6.25H14.5V5.71047C14.5 5.67597 14.5192 5.64494 14.5501 5.6295L14.7997 5.50469C14.8058 5.50162 14.8126 5.50003 14.8195 5.50003H15.1805C15.1874 5.50003 15.1942 5.50166 15.2003 5.50472L15.45 5.62953C15.4808 5.64497 15.5 5.67597 15.5 5.7105V7.25Z" fill="black"/>
<path d="M7.75 2.75C7.75 2.61194 7.63806 2.5 7.5 2.5V2.25C7.5 2.11194 7.38806 2 7.25 2C7.11194 2 7 2.11194 7 2.25V2.5C6.86194 2.5 6.75 2.61194 6.75 2.75C6.75 2.88806 6.86194 3 7 3V5.66913C6.86169 5.557 6.69384 5.43838 6.5 5.33247V4.75C6.63806 4.75 6.75 4.63806 6.75 4.5C6.75 4.36194 6.63806 4.25 6.5 4.25V4C6.5 3.86194 6.38806 3.75 6.25 3.75C6.11194 3.75 6 3.86194 6 4V4.25C5.86194 4.25 5.75 4.36194 5.75 4.5C5.75 4.63806 5.86194 4.75 6 4.75V5.11741C5.80794 5.05638 5.60031 5.01434 5.37866 5.00306C5.33572 5.00088 5.29284 5.00009 5.25 5.00022V4.25C5.38806 4.25 5.5 4.13806 5.5 4C5.5 3.86194 5.38806 3.75 5.25 3.75V3.5C5.25 3.36194 5.13806 3.25 5 3.25C4.86194 3.25 4.75 3.36194 4.75 3.5V3.75C4.61194 3.75 4.5 3.86194 4.5 4C4.5 4.13806 4.61194 4.25 4.75 4.25V5.05525C4.49697 5.11038 4.24672 5.20678 4 5.34438V5.25C4.13806 5.25 4.25 5.13806 4.25 5C4.25 4.86194 4.13806 4.75 4 4.75V4.5C4 4.36194 3.88806 4.25 3.75 4.25C3.61194 4.25 3.5 4.36194 3.5 4.5V4.75C3.36194 4.75 3.25 4.86194 3.25 5C3.25 5.13806 3.36194 5.25 3.5 5.25V5.68328C3.35556 5.79897 3.21253 5.92909 3.07116 6.07391C2.96456 6.18309 2.85747 6.282 2.75 6.37184V5.5C2.75 5.36194 2.63806 5.25 2.5 5.25C2.36194 5.25 2.25 5.36194 2.25 5.5V6.71906C2.16684 6.76503 2.0835 6.80497 2 6.83959V5.71047C2 5.48534 1.87491 5.28294 1.67356 5.18228L1.424 5.0575C1.3695 5.03025 1.31025 5.01244 1.24978 5.00462C1.24978 5.00306 1.25 5.00156 1.25 5V4.60353L1.92678 3.92675C2.00288 3.85066 2.02175 3.73444 1.97362 3.63819L1.25 2.191V1.75C1.25 1.61194 1.13806 1.5 1 1.5C0.861938 1.5 0.75 1.61194 0.75 1.75V2.191L0.0264063 3.63819C-0.0217187 3.73444 -0.002875 3.85069 0.07325 3.92675L0.75 4.60353V5C0.75 5.00156 0.750219 5.00306 0.750219 5.00462C0.689719 5.01244 0.6305 5.03022 0.576031 5.05747L0.326469 5.18225C0.125094 5.28294 0 5.48534 0 5.71047V15.25C0 15.3881 0.111937 15.5 0.25 15.5H1.75C1.88806 15.5 2 15.3881 2 15.25V15H7.25C7.38806 15 7.5 14.8881 7.5 14.75V6.25978C7.5 6.25953 7.49997 6.25931 7.49997 6.25906V3C7.63806 3 7.75 2.88806 7.75 2.75ZM0.554187 3.70062L1 2.80903L1.44581 3.70066L1 4.14647L0.554187 3.70062ZM1.5 6.25H1C0.861938 6.25 0.75 6.36194 0.75 6.5C0.75 6.63806 0.861938 6.75 1 6.75H1.5V8.25H1C0.861938 8.25 0.75 8.36194 0.75 8.5C0.75 8.63806 0.861938 8.75 1 8.75H1.5V10.25H1C0.861938 10.25 0.75 10.3619 0.75 10.5C0.75 10.6381 0.861938 10.75 1 10.75H1.5V12.25H1C0.861938 12.25 0.75 12.3619 0.75 12.5C0.75 12.6381 0.861938 12.75 1 12.75H1.5V14.25H1C0.861938 14.25 0.75 14.3619 0.75 14.5C0.75 14.6381 0.861938 14.75 1 14.75H1.5V15H0.5V13.75H1C1.13806 13.75 1.25 13.6381 1.25 13.5C1.25 13.3619 1.13806 13.25 1 13.25H0.5V11.75H1C1.13806 11.75 1.25 11.6381 1.25 11.5C1.25 11.3619 1.13806 11.25 1 11.25H0.5V9.75H1C1.13806 9.75 1.25 9.63806 1.25 9.5C1.25 9.36194 1.13806 9.25 1 9.25H0.5V7.75H1C1.13806 7.75 1.25 7.63806 1.25 7.5C1.25 7.36194 1.13806 7.25 1 7.25H0.5V5.71047C0.5 5.67597 0.519187 5.64494 0.550062 5.6295L0.799656 5.50469C0.805781 5.50162 0.812625 5.50003 0.8195 5.50003H1.1805C1.18738 5.50003 1.19422 5.50166 1.20034 5.50472L1.44997 5.62953C1.48081 5.64497 1.5 5.67597 1.5 5.7105V6.25ZM5.25 5.50025C5.28306 5.50009 5.31609 5.50059 5.34916 5.50219C5.58456 5.51366 5.80319 5.56984 6 5.64913V7.61575C5.80847 7.55575 5.6015 7.51437 5.38056 7.50309C5.33697 7.50087 5.29347 7.50006 5.25 7.50019V5.50025ZM5.25 8.00028C5.28363 8.00009 5.31725 8.00059 5.35091 8.00225C5.58575 8.01372 5.80359 8.06916 6 8.14691V12.25H5.25V8.00028ZM4 5.93384C4.24837 5.76169 4.49872 5.64034 4.75 5.57066V7.55444C4.49697 7.60875 4.24672 7.70375 4 7.83934V5.93384ZM4 8.42634C4.24828 8.25716 4.49862 8.13797 4.75 8.0695V12.25H4V8.42634ZM2.75 6.99534C3.01 6.82028 3.23797 6.61875 3.42891 6.42319C3.45256 6.39894 3.47628 6.37534 3.5 6.35203V8.17331C3.35603 8.28691 3.2135 8.41469 3.07253 8.55681C2.96547 8.66475 2.85794 8.76262 2.75 8.85137V6.99534ZM2.75 9.47131C3.00941 9.29916 3.23691 9.10112 3.4275 8.90894C3.45163 8.88459 3.47581 8.86094 3.5 8.83756V12.25H2.75V9.47131ZM2 7.37106C2.08544 7.34259 2.16884 7.31009 2.25 7.27409V9.19244C2.16684 9.23766 2.0835 9.27744 2 9.3115V7.37106ZM2 9.84156C2.08547 9.8135 2.16881 9.78144 2.25 9.74591V12.25H2V9.84156ZM2 14.5V12.75H7V14.5H2ZM7.00003 12.25H6.5V8.41384C6.743 8.57859 6.91675 8.74975 7.00003 8.83891V12.25ZM7.00003 8.15953C6.86175 8.04906 6.69391 7.93213 6.5 7.82772V5.92103C6.74344 6.08894 6.91738 6.26344 7 6.35344V7C7 7.00019 7.00003 7.00037 7.00003 7.00059V8.15953Z" fill="black"/>
</g>
<defs>
<clipPath id="clip0_114_411">
<rect width="16" height="16" fill="white" transform="translate(0 0.5)"/>
</clipPath>
</defs>
</svg>
