<svg width="15" height="15" viewBox="0 0 15 15" fill="none" xmlns="http://www.w3.org/2000/svg">
<g clip-path="url(#clip0_75_97)">
<path fill-rule="evenodd" clip-rule="evenodd" d="M7.50001 15C6.01665 15 4.5666 14.5601 3.33323 13.736C2.09986 12.9119 1.13857 11.7406 0.570915 10.3701C0.00325739 8.99968 -0.145278 7.49168 0.144111 6.03682C0.4335 4.58197 1.14781 3.2456 2.19671 2.1967C3.2456 1.14781 4.58197 0.433504 6.03683 0.144115C7.49168 -0.145274 8.99969 0.00324613 10.3701 0.570903C11.7406 1.13856 12.9119 2.09986 13.736 3.33322C14.5601 4.56659 15 6.01664 15 7.5C15 9.48913 14.2098 11.3968 12.8033 12.8033C11.3968 14.2098 9.48913 15 7.50001 15ZM3.2535 9.19126C3.09222 9.0282 3.00176 8.8081 3.00176 8.57875C3.00176 8.34941 3.09222 8.12931 3.2535 7.96625L3.69501 7.52726C3.7701 7.45149 3.85962 7.39158 3.9583 7.35109C4.05698 7.3106 4.1628 7.29035 4.26946 7.29154C4.37612 7.29273 4.48145 7.31533 4.5792 7.35801C4.67695 7.40069 4.76513 7.46259 4.83851 7.54L5.61851 8.34925C5.6557 8.38849 5.70049 8.41975 5.75016 8.4411C5.79983 8.46246 5.85332 8.47348 5.90739 8.47348C5.96145 8.47348 6.01495 8.46246 6.06461 8.4411C6.11428 8.41975 6.15906 8.38849 6.19625 8.34925L10.1713 4.25175C10.2452 4.17379 10.3341 4.11157 10.4326 4.06885C10.5312 4.02613 10.6374 4.00378 10.7448 4.00315C10.8522 4.00252 10.9587 4.02362 11.0577 4.06518C11.1568 4.10674 11.2464 4.16791 11.3212 4.24501L11.75 4.6785C11.9074 4.84089 11.9953 5.05814 11.9953 5.28425C11.9953 5.51037 11.9074 5.72761 11.75 5.89L6.47275 11.2528C6.39911 11.329 6.31099 11.3897 6.21355 11.4315C6.11612 11.4732 6.01132 11.4951 5.90533 11.4958C5.79933 11.4965 5.69427 11.476 5.59629 11.4355C5.49831 11.3951 5.4094 11.3355 5.33475 11.2603L3.2535 9.19126Z" fill="#699F4C"/>
</g>
<defs>
<clipPath id="clip0_75_97">
<rect width="15" height="15" fill="white"/>
</clipPath>
</defs>
</svg>
