<svg width="18" height="17" viewBox="0 0 18 17" fill="none" xmlns="http://www.w3.org/2000/svg">
<path d="M12.975 1.1125C15.3516 1.1125 17.2828 3.04844 17.2828 5.43906C17.2828 6.66719 16.7719 7.77344 15.9562 8.56094L9 15.5828L1.92188 8.43438C1.18125 7.65625 0.721875 6.60156 0.721875 5.43906C0.721875 3.04844 2.64844 1.1125 5.02969 1.1125C6.82031 1.1125 8.35313 2.20937 9.00469 3.775C9.64688 2.21406 11.1844 1.1125 12.975 1.1125ZM12.975 0.390625C11.3906 0.390625 9.9375 1.13125 9 2.35C8.0625 1.13125 6.60938 0.390625 5.025 0.390625C2.25469 0.390625 0 2.65469 0 5.43906C0 6.74687 0.496875 7.98906 1.40156 8.93594L8.48906 16.0938L9 16.6094L9.51094 16.0938L16.4625 9.07188C17.4469 8.12031 18 6.82656 18 5.43906C18 2.65469 15.7453 0.390625 12.975 0.390625Z" fill="#0076D6"/>
</svg>
