<svg width="16" height="17" viewBox="0 0 16 17" fill="none" xmlns="http://www.w3.org/2000/svg">
<g clip-path="url(#clip0_424_1145)">
<path d="M10.0225 6.64059L5.3038 10.3906C5.21005 10.4687 5.1788 10.625 5.27255 10.7187C5.31942 10.7812 5.38192 10.8125 5.46005 10.8125C5.50692 10.8125 5.56942 10.7968 5.60067 10.7656L10.3194 7.01559C10.4132 6.93746 10.4444 6.78121 10.3507 6.68746C10.2725 6.57809 10.1319 6.56246 10.0225 6.64059Z" fill="black"/>
<path d="M6.56944 8.31248C6.63194 8.31248 6.69444 8.31248 6.75694 8.29685C7.39757 8.2031 7.85069 7.59373 7.74132 6.93748C7.69444 6.62498 7.52257 6.34373 7.27257 6.15623C7.02257 5.96873 6.71007 5.8906 6.39757 5.93748C6.08507 5.98435 5.80382 6.15623 5.61632 6.40623C5.42882 6.65623 5.35069 6.96873 5.39757 7.28123C5.49132 7.8906 6.00694 8.31248 6.56944 8.31248ZM6.46007 6.42185C6.49132 6.42185 6.53819 6.40623 6.56944 6.40623C6.91319 6.40623 7.22569 6.65623 7.27257 7.0156C7.33507 7.40623 7.06944 7.7656 6.67882 7.8281C6.28819 7.8906 5.92882 7.62498 5.86632 7.23435C5.80382 6.84373 6.08507 6.48435 6.46007 6.42185Z" fill="black"/>
<path d="M9.06946 9.0937C8.41321 9.0937 7.88196 9.62495 7.88196 10.2812C7.88196 10.9375 8.41321 11.4687 9.06946 11.4687C9.72571 11.4687 10.257 10.9375 10.257 10.2812C10.2413 9.62495 9.71008 9.0937 9.06946 9.0937ZM9.06946 10.9843C8.67883 10.9843 8.35071 10.6562 8.35071 10.2656C8.35071 9.87495 8.67883 9.54683 9.06946 9.54683C9.46008 9.54683 9.78821 9.87495 9.78821 10.2656C9.77258 10.6718 9.46008 10.9843 9.06946 10.9843Z" fill="black"/>
<path d="M14.9132 8.54686C14.9132 8.53123 14.9288 8.49998 14.9288 8.48436C14.9288 7.81248 14.2257 7.46873 13.6163 7.17186C13.1788 6.95311 12.7101 6.71873 12.5851 6.43748C12.4601 6.14061 12.632 5.65623 12.8038 5.20311C13.0382 4.56248 13.2726 3.90623 12.8351 3.46873C12.3976 3.03123 11.7726 3.18748 11.1476 3.32811C10.7101 3.42186 10.257 3.53123 9.96008 3.40623C9.66321 3.28123 9.41321 2.89061 9.17883 2.51561C8.83508 1.98436 8.46008 1.37498 7.80383 1.37498C7.14758 1.37498 6.77258 1.98436 6.44446 2.53123C6.21008 2.92186 5.97571 3.31248 5.67883 3.43748C5.38196 3.56248 4.91321 3.45311 4.47571 3.34373C3.85071 3.18748 3.21008 3.03123 2.78821 3.45311C2.35071 3.89061 2.56946 4.54686 2.77258 5.18748C2.92883 5.65623 3.06946 6.12498 2.94446 6.43748C2.81946 6.73436 2.38196 6.95311 1.96008 7.17186C1.36633 7.48436 0.694458 7.82811 0.694458 8.48436C0.694458 8.49998 0.694458 8.53123 0.710083 8.54686C0.710083 8.56248 0.694458 8.59373 0.694458 8.60936C0.694458 9.26561 1.36633 9.62498 1.96008 9.92186C2.38196 10.1406 2.81946 10.3594 2.94446 10.6562C3.06946 10.9531 2.91321 11.4375 2.77258 11.9062C2.56946 12.5469 2.35071 13.2031 2.78821 13.6406C3.22571 14.0781 3.86633 13.9062 4.47571 13.75C4.91321 13.6406 5.38196 13.5312 5.67883 13.6562C5.97571 13.7812 6.21008 14.1719 6.44446 14.5625C6.77258 15.1094 7.14758 15.7187 7.80383 15.7187C8.46008 15.7187 8.85071 15.1094 9.17883 14.5781C9.41321 14.2031 9.66321 13.8125 9.96008 13.6875C10.2726 13.5625 10.7101 13.6562 11.1476 13.7656C11.757 13.9062 12.3976 14.0625 12.8351 13.625C13.2726 13.1875 13.0382 12.5312 12.8038 11.8906C12.632 11.4219 12.4601 10.9531 12.5851 10.6562C12.7101 10.3594 13.1632 10.1406 13.6163 9.92186C14.2257 9.60936 14.9288 9.26561 14.9288 8.60936C14.9288 8.57811 14.9132 8.56248 14.9132 8.54686ZM13.3976 9.49998C12.882 9.76561 12.3351 10.0312 12.1476 10.4844C11.9445 10.9531 12.1632 11.5156 12.3507 12.0625C12.5382 12.5781 12.7257 13.0781 12.4913 13.2969C12.2413 13.5469 11.757 13.4375 11.2413 13.3125C10.7257 13.1875 10.2101 13.0781 9.75696 13.2656C9.31946 13.4531 9.03821 13.8906 8.77258 14.3281C8.47571 14.7969 8.19446 15.25 7.78821 15.25C7.39758 15.25 7.11633 14.7969 6.81946 14.3125C6.55383 13.8594 6.27258 13.4062 5.83508 13.2187C5.38196 13.0312 4.85071 13.1562 4.33508 13.2969C3.81946 13.4219 3.33508 13.5469 3.08508 13.3125C2.85071 13.0781 3.00696 12.5781 3.17883 12.0625C3.35071 11.5156 3.53821 10.9531 3.33508 10.5C3.14758 10.0469 2.63196 9.78123 2.13196 9.53123C1.61633 9.26561 1.13196 9.01561 1.13196 8.62498C1.13196 8.60936 1.13196 8.57811 1.11633 8.56248C1.11633 8.54686 1.13196 8.51561 1.13196 8.49998C1.13196 8.12498 1.61633 7.87498 2.13196 7.59373C2.63196 7.34373 3.14758 7.07811 3.33508 6.62498C3.52258 6.15623 3.35071 5.59373 3.17883 5.06248C3.00696 4.53123 2.85071 4.03123 3.08508 3.81248C3.33508 3.56248 3.81946 3.68748 4.33508 3.82811C4.85071 3.95311 5.38196 4.09373 5.83508 3.90623C6.27258 3.71873 6.55383 3.26561 6.81946 2.81248C7.11633 2.32811 7.38196 1.87498 7.78821 1.87498C8.19446 1.87498 8.47571 2.32811 8.77258 2.79686C9.05383 3.23436 9.33508 3.67186 9.75696 3.85936C10.2101 4.04686 10.7257 3.92186 11.2413 3.81248C11.757 3.68748 12.2413 3.57811 12.4913 3.82811C12.7257 4.04686 12.5382 4.54686 12.3507 5.06248C12.1476 5.60936 11.9445 6.17186 12.1476 6.64061C12.3351 7.09373 12.882 7.35936 13.3976 7.62498C13.9445 7.89061 14.4445 8.15623 14.4445 8.53123C14.4445 8.54686 14.4445 8.57811 14.4601 8.59373C14.4601 8.60936 14.4445 8.64061 14.4445 8.65623C14.4601 8.96873 13.9445 9.23436 13.3976 9.49998Z" fill="black"/>
</g>
<defs>
<clipPath id="clip0_424_1145">
<rect width="15.625" height="15.625" fill="white" transform="translate(0.00695801 0.6875)"/>
</clipPath>
</defs>
</svg>
