<svg width="16" height="17" viewBox="0 0 16 17" fill="none" xmlns="http://www.w3.org/2000/svg">
<path d="M10.7388 5.79313C10.7388 5.25281 10.5787 4.72459 10.2785 4.2753C9.97838 3.826 9.55174 3.4758 9.05256 3.26899C8.55338 3.06217 8.00408 3.00802 7.47413 3.1134C6.94418 3.21877 6.45737 3.47894 6.07528 3.86098C5.69319 4.24303 5.43298 4.7298 5.32754 5.25974C5.22211 5.78968 5.27619 6.33899 5.48295 6.83819C5.68971 7.33739 6.03986 7.76407 6.48912 8.06427C6.93838 8.36447 7.46657 8.5247 8.0069 8.5247C8.73116 8.52395 9.42554 8.23593 9.9377 7.72384C10.4499 7.21174 10.7379 6.51739 10.7388 5.79313ZM5.65628 5.79313C5.65628 5.32815 5.79416 4.87361 6.0525 4.48699C6.31084 4.10037 6.67802 3.79905 7.10762 3.62112C7.53722 3.44319 8.00993 3.39665 8.46597 3.48739C8.92202 3.57813 9.34092 3.80206 9.66969 4.13088C9.99846 4.45969 10.2223 4.87862 10.313 5.33468C10.4037 5.79074 10.3571 6.26344 10.1791 6.69301C10.0011 7.12259 9.69975 7.48973 9.3131 7.74802C8.92645 8.0063 8.47189 8.14413 8.0069 8.14407C7.38368 8.14324 6.78622 7.89528 6.34556 7.45456C5.9049 7.01385 5.65702 6.41636 5.65628 5.79313Z" fill="black"/>
<path d="M14.7623 15.2647H8.44663C9.53132 14.085 13.1279 9.93374 13.2066 6.68749C13.2448 5.0903 12.796 3.80061 11.8729 2.85468C10.9423 1.90124 9.53288 1.35468 8.00726 1.35468C6.48163 1.35468 5.07163 1.90186 4.14101 2.85468C3.21788 3.80093 2.76913 5.0903 2.80757 6.68749C2.88601 9.93374 6.48288 14.085 7.56757 15.2647H1.25163C1.20245 15.2667 1.15595 15.2876 1.12186 15.3231C1.08776 15.3586 1.06873 15.4059 1.06873 15.4551C1.06873 15.5044 1.08776 15.5517 1.12186 15.5872C1.15595 15.6227 1.20245 15.6436 1.25163 15.6456H14.7623C14.8114 15.6436 14.8579 15.6227 14.892 15.5872C14.9261 15.5517 14.9452 15.5044 14.9452 15.4551C14.9452 15.4059 14.9261 15.3586 14.892 15.3231C14.8579 15.2876 14.8114 15.2667 14.7623 15.2647ZM4.4132 3.12061C5.27257 2.2403 6.58257 1.7353 8.00695 1.7353C9.43132 1.7353 10.7404 2.2403 11.6007 3.12061C12.4501 3.9903 12.8623 5.18749 12.8266 6.67811C12.7482 9.92811 8.79882 14.3284 8.00788 15.1781C7.21695 14.329 3.26757 9.92811 3.18913 6.67811C3.15226 5.18749 3.56476 3.99061 4.4132 3.12061Z" fill="black"/>
</svg>
