<svg width="16" height="17" viewBox="0 0 16 17" fill="none" xmlns="http://www.w3.org/2000/svg">
<path d="M10.0156 6.64062L5.29684 10.3906C5.20309 10.4687 5.17184 10.625 5.26559 10.7187C5.31247 10.7812 5.37497 10.8125 5.45309 10.8125C5.49997 10.8125 5.56246 10.7969 5.59371 10.7656L10.3125 7.01563C10.4062 6.9375 10.4375 6.78125 10.3437 6.6875C10.2656 6.57813 10.125 6.5625 10.0156 6.64062Z" fill="black"/>
<path d="M6.56236 8.31248C6.62486 8.31248 6.68736 8.31248 6.74986 8.29686C7.39049 8.20311 7.84361 7.59373 7.73424 6.93748C7.68736 6.62498 7.51549 6.34373 7.26549 6.15623C7.01549 5.96873 6.70299 5.89061 6.39049 5.93748C6.07799 5.98436 5.79674 6.15623 5.60924 6.40623C5.42174 6.65623 5.34361 6.96873 5.39049 7.28123C5.48424 7.89061 5.99986 8.31248 6.56236 8.31248ZM6.45299 6.42186C6.48424 6.42186 6.53111 6.40623 6.56236 6.40623C6.90611 6.40623 7.21861 6.65623 7.26549 7.01561C7.32799 7.40623 7.06236 7.76561 6.67174 7.82811C6.28111 7.89061 5.92174 7.62498 5.85924 7.23436C5.79674 6.84373 6.07799 6.48436 6.45299 6.42186Z" fill="black"/>
<path d="M9.0625 9.09375C8.40625 9.09375 7.875 9.625 7.875 10.2813C7.875 10.9375 8.40625 11.4688 9.0625 11.4688C9.71875 11.4688 10.25 10.9375 10.25 10.2813C10.2344 9.625 9.70312 9.09375 9.0625 9.09375ZM9.0625 10.9844C8.67187 10.9844 8.34375 10.6562 8.34375 10.2656C8.34375 9.875 8.67187 9.54688 9.0625 9.54688C9.45312 9.54688 9.78125 9.875 9.78125 10.2656C9.76562 10.6719 9.45312 10.9844 9.0625 10.9844Z" fill="black"/>
<path d="M14.9062 8.54687C14.9062 8.53125 14.9219 8.5 14.9219 8.48438C14.9219 7.8125 14.2188 7.46875 13.6094 7.17188C13.1719 6.95312 12.7031 6.71875 12.5781 6.4375C12.4531 6.14062 12.625 5.65625 12.7969 5.20312C13.0312 4.5625 13.2656 3.90625 12.8281 3.46875C12.3906 3.03125 11.7656 3.1875 11.1406 3.32812C10.7031 3.42188 10.25 3.53125 9.95312 3.40625C9.65625 3.28125 9.40625 2.89062 9.17188 2.51562C8.82812 1.98437 8.45312 1.375 7.79688 1.375C7.14062 1.375 6.76562 1.98438 6.4375 2.53125C6.20312 2.92188 5.96875 3.3125 5.67188 3.4375C5.375 3.5625 4.90625 3.45312 4.46875 3.34375C3.84375 3.1875 3.20312 3.03125 2.78125 3.45313C2.34375 3.89063 2.5625 4.54688 2.76563 5.1875C2.92188 5.65625 3.0625 6.125 2.9375 6.4375C2.8125 6.73437 2.375 6.95312 1.95312 7.17188C1.35938 7.48438 0.6875 7.82812 0.6875 8.48438C0.6875 8.5 0.6875 8.53125 0.703125 8.54687C0.703125 8.5625 0.6875 8.59375 0.6875 8.60938C0.6875 9.26562 1.35938 9.625 1.95312 9.92188C2.375 10.1406 2.8125 10.3594 2.9375 10.6562C3.0625 10.9531 2.90625 11.4375 2.76563 11.9062C2.5625 12.5469 2.34375 13.2031 2.78125 13.6406C3.21875 14.0781 3.85938 13.9062 4.46875 13.75C4.90625 13.6406 5.375 13.5312 5.67188 13.6562C5.96875 13.7812 6.20312 14.1719 6.4375 14.5625C6.76562 15.1094 7.14062 15.7187 7.79688 15.7187C8.45312 15.7187 8.84375 15.1094 9.17188 14.5781C9.40625 14.2031 9.65625 13.8125 9.95312 13.6875C10.2656 13.5625 10.7031 13.6562 11.1406 13.7656C11.75 13.9062 12.3906 14.0625 12.8281 13.625C13.2656 13.1875 13.0312 12.5312 12.7969 11.8906C12.625 11.4219 12.4531 10.9531 12.5781 10.6562C12.7031 10.3594 13.1562 10.1406 13.6094 9.92188C14.2188 9.60938 14.9219 9.26562 14.9219 8.60938C14.9219 8.57812 14.9062 8.5625 14.9062 8.54687ZM13.3906 9.5C12.875 9.76562 12.3281 10.0312 12.1406 10.4844C11.9375 10.9531 12.1562 11.5156 12.3438 12.0625C12.5312 12.5781 12.7188 13.0781 12.4844 13.2969C12.2344 13.5469 11.75 13.4375 11.2344 13.3125C10.7188 13.1875 10.2031 13.0781 9.75 13.2656C9.3125 13.4531 9.03125 13.8906 8.76562 14.3281C8.46875 14.7969 8.1875 15.25 7.78125 15.25C7.39062 15.25 7.10937 14.7969 6.8125 14.3125C6.54687 13.8594 6.26562 13.4062 5.82812 13.2187C5.375 13.0312 4.84375 13.1562 4.32813 13.2969C3.8125 13.4219 3.32813 13.5469 3.07813 13.3125C2.84375 13.0781 3 12.5781 3.17188 12.0625C3.34375 11.5156 3.53125 10.9531 3.32812 10.5C3.14062 10.0469 2.625 9.78125 2.125 9.53125C1.60938 9.26562 1.125 9.01562 1.125 8.625C1.125 8.60937 1.125 8.57812 1.10937 8.5625C1.10937 8.54688 1.125 8.51562 1.125 8.5C1.125 8.125 1.60938 7.875 2.125 7.59375C2.625 7.34375 3.14062 7.07812 3.32812 6.625C3.51562 6.15625 3.34375 5.59375 3.17188 5.0625C3 4.53125 2.84375 4.03125 3.07813 3.8125C3.32813 3.5625 3.8125 3.6875 4.32813 3.82812C4.84375 3.95313 5.375 4.09375 5.82812 3.90625C6.26562 3.71875 6.54687 3.26563 6.8125 2.8125C7.10937 2.32813 7.375 1.875 7.78125 1.875C8.1875 1.875 8.46875 2.32813 8.76562 2.79688C9.04687 3.23438 9.32812 3.67188 9.75 3.85938C10.2031 4.04688 10.7188 3.92188 11.2344 3.8125C11.75 3.6875 12.2344 3.57812 12.4844 3.82812C12.7188 4.04688 12.5312 4.54688 12.3438 5.0625C12.1406 5.60938 11.9375 6.17187 12.1406 6.64062C12.3281 7.09375 12.875 7.35938 13.3906 7.625C13.9375 7.89062 14.4375 8.15625 14.4375 8.53125C14.4375 8.54688 14.4375 8.57812 14.4531 8.59375C14.4531 8.60937 14.4375 8.64062 14.4375 8.65625C14.4531 8.96875 13.9375 9.23438 13.3906 9.5Z" fill="black"/>
</svg>
