<svg width="16" height="17" viewBox="0 0 16 17" fill="none" xmlns="http://www.w3.org/2000/svg">
<path d="M10.7318 5.79316C10.7319 5.25284 10.5717 4.72463 10.2716 4.27533C9.97142 3.82603 9.54478 3.47583 9.0456 3.26902C8.54642 3.0622 7.99712 3.00805 7.46717 3.11343C6.93722 3.2188 6.45042 3.47897 6.06833 3.86101C5.68624 4.24306 5.42602 4.72983 5.32058 5.25977C5.21515 5.78971 5.26923 6.33902 5.47599 6.83822C5.68275 7.33742 6.0329 7.7641 6.48216 8.0643C6.93142 8.3645 7.45962 8.52473 7.99994 8.52473C8.7242 8.52398 9.41858 8.23596 9.93074 7.72387C10.4429 7.21177 10.731 6.51742 10.7318 5.79316ZM5.64932 5.79316C5.64932 5.32818 5.78721 4.87364 6.04554 4.48702C6.30388 4.1004 6.67107 3.79908 7.10066 3.62115C7.53026 3.44322 8.00297 3.39668 8.45902 3.48742C8.91506 3.57816 9.33396 3.80209 9.66273 4.13091C9.9915 4.45973 10.2154 4.87865 10.3061 5.33471C10.3967 5.79077 10.3501 6.26347 10.1721 6.69304C9.99416 7.12262 9.69279 7.48976 9.30614 7.74805C8.91949 8.00634 8.46493 8.14416 7.99994 8.1441C7.37672 8.14327 6.77926 7.89531 6.3386 7.45459C5.89795 7.01388 5.65006 6.41639 5.64932 5.79316Z" fill="black"/>
<path d="M14.7553 15.2647H8.43968C9.52436 14.085 13.1209 9.93374 13.1997 6.68749C13.2378 5.0903 12.789 3.80061 11.8659 2.85468C10.9353 1.90124 9.52593 1.35468 8.0003 1.35468C6.47468 1.35468 5.06468 1.90186 4.13405 2.85468C3.21093 3.80093 2.76218 5.0903 2.80061 6.68749C2.87905 9.93374 6.47593 14.085 7.56061 15.2647H1.24468C1.1955 15.2667 1.14899 15.2876 1.1149 15.3231C1.08081 15.3586 1.06177 15.4059 1.06177 15.4551C1.06177 15.5044 1.08081 15.5517 1.1149 15.5872C1.14899 15.6227 1.1955 15.6436 1.24468 15.6456H14.7553C14.8045 15.6436 14.851 15.6227 14.8851 15.5872C14.9192 15.5517 14.9382 15.5044 14.9382 15.4551C14.9382 15.4059 14.9192 15.3586 14.8851 15.3231C14.851 15.2876 14.8045 15.2667 14.7553 15.2647ZM4.40624 3.12061C5.26561 2.2403 6.57561 1.7353 7.99999 1.7353C9.42436 1.7353 10.7334 2.2403 11.5937 3.12061C12.4431 3.9903 12.8553 5.18749 12.8197 6.67811C12.7412 9.92811 8.79186 14.3284 8.00093 15.1781C7.20999 14.329 3.26061 9.92811 3.18218 6.67811C3.1453 5.18749 3.5578 3.99061 4.40624 3.12061Z" fill="black"/>
</svg>
