<svg width="20" height="20" viewBox="0 0 20 20" fill="none" xmlns="http://www.w3.org/2000/svg">
<path d="M5.61223 11.9659H1.88196V14.625H5.61223V11.9659Z" fill="black"/>
<path d="M13.0727 8.39841H10.1714V11.0795H13.0727H13.9016H17.6319V8.39841H13.9016H13.0727Z" fill="black"/>
<path d="M5.61223 4.875H1.88196V7.51199H5.61223V4.875Z" fill="#3A92CC"/>
<path d="M10.1714 7.51199H13.0727V4.875H6.44116V7.51199H9.34247H10.1714Z" fill="black"/>
<path d="M9.34248 8.39841H6.02669H5.61223H1.88196V11.0795H5.61223H6.02669H9.34248V8.39841Z" fill="black"/>
<path d="M17.632 4.875H13.9017V7.51199H17.632V4.875Z" fill="#3A92CC"/>
<path d="M9.34247 11.9659H6.44116V14.625H13.0727V11.9659H10.1714H9.34247Z" fill="#3A92CC"/>
<path d="M17.632 11.9659H13.9017V14.625H17.632V11.9659Z" fill="black"/>
</svg>
