<svg width="20" height="20" viewBox="0 0 20 20" fill="none" xmlns="http://www.w3.org/2000/svg">
<path d="M5.60527 11.9659H1.875V14.625H5.60527V11.9659Z" fill="black"/>
<path d="M13.0659 8.39844H10.1646V11.0796H13.0659H13.8948H17.6251V8.39844H13.8948H13.0659Z" fill="black"/>
<path d="M5.60527 4.875H1.875V7.51199H5.60527V4.875Z" fill="#3A92CC"/>
<path d="M10.1646 7.51199H13.0659V4.875H6.43433V7.51199H9.33563H10.1646Z" fill="black"/>
<path d="M9.33552 8.39844H6.01973H5.60527H1.875V11.0796H5.60527H6.01973H9.33552V8.39844Z" fill="black"/>
<path d="M17.625 4.875H13.8948V7.51199H17.625V4.875Z" fill="#3A92CC"/>
<path d="M9.33563 11.9659H6.43433V14.625H13.0659V11.9659H10.1646H9.33563Z" fill="#3A92CC"/>
<path d="M17.625 11.9659H13.8948V14.625H17.625V11.9659Z" fill="black"/>
</svg>
