<svg width="22" height="23" viewBox="0 0 22 23" fill="none" xmlns="http://www.w3.org/2000/svg">
<path d="M17.8707 14.916C17.2433 14.2715 15.4601 13.0641 14.2914 13.0641C14.0207 13.0641 13.7843 13.1242 13.591 13.2488C13.0195 13.6141 12.564 13.8977 12.3449 13.8977C12.2246 13.8977 12.0957 13.7902 11.8121 13.5453L11.7648 13.5023C10.9785 12.8191 10.8109 12.643 10.5058 12.325L10.4285 12.2434C10.3726 12.1875 10.3253 12.1359 10.2781 12.0887C10.0117 11.8137 9.81831 11.616 9.13511 10.8426L9.10503 10.8082C8.77847 10.4387 8.56362 10.1981 8.55073 10.0219C8.53784 9.85001 8.68823 9.57071 9.07065 9.05079C9.53472 8.42344 9.5519 7.65001 9.12651 6.75196C8.78706 6.04298 8.23276 5.36407 7.74292 4.7668L7.69995 4.71524C7.27886 4.19962 6.78901 3.9418 6.24331 3.9418C5.63745 3.9418 5.13472 4.26837 4.86831 4.44024C4.84683 4.45313 4.82534 4.47032 4.80386 4.48321C4.20659 4.86133 3.77261 5.38126 3.60933 5.90977C3.36441 6.70469 3.20112 7.73594 4.37417 9.88008C5.38823 11.7363 6.30776 12.9824 7.7687 14.482C9.1437 15.8914 9.75386 16.3469 11.1203 17.3352C12.6414 18.4352 14.1023 19.0668 15.125 19.0668C16.0746 19.0668 16.8222 19.0668 17.8878 17.782C19.005 16.4328 18.541 15.6078 17.8707 14.916Z" fill="white"/>
</svg>
