<svg width="23" height="23" viewBox="0 0 23 23" fill="none" xmlns="http://www.w3.org/2000/svg">
<path d="M18.3707 14.916C17.7433 14.2715 15.9601 13.064 14.7914 13.064C14.5207 13.064 14.2843 13.1242 14.091 13.2488C13.5195 13.614 13.064 13.8976 12.8449 13.8976C12.7246 13.8976 12.5957 13.7902 12.3121 13.5453L12.2648 13.5023C11.4785 12.8191 11.3109 12.6429 11.0058 12.325L10.9285 12.2433C10.8726 12.1875 10.8253 12.1359 10.7781 12.0886C10.5117 11.8136 10.3183 11.616 9.63511 10.8426L9.60503 10.8082C9.27847 10.4386 9.06362 10.198 9.05073 10.0219C9.03784 9.84998 9.18823 9.57068 9.57065 9.05076C10.0347 8.42341 10.0519 7.64998 9.62651 6.75193C9.28706 6.04294 8.73276 5.36404 8.24292 4.76677L8.19995 4.71521C7.77886 4.19958 7.28901 3.94177 6.74331 3.94177C6.13745 3.94177 5.63472 4.26833 5.36831 4.44021C5.34683 4.4531 5.32534 4.47029 5.30386 4.48318C4.70659 4.8613 4.27261 5.38123 4.10933 5.90974C3.86441 6.70466 3.70112 7.73591 4.87417 9.88005C5.88823 11.7363 6.80776 12.9824 8.2687 14.482C9.6437 15.8914 10.2539 16.3469 11.6203 17.3351C13.1414 18.4351 14.6023 19.0668 15.625 19.0668C16.5746 19.0668 17.3222 19.0668 18.3878 17.782C19.505 16.4328 19.041 15.6078 18.3707 14.916Z" fill="white"/>
</svg>
