<svg width="25" height="25" viewBox="0 0 25 25" fill="none" xmlns="http://www.w3.org/2000/svg">
<path d="M17.075 8.3749C17.025 8.1999 16.925 7.9999 16.85 7.8249C15.95 5.6499 14 4.8999 12.425 4.8999C10.3 4.8999 7.97505 6.3249 7.67505 9.2499V9.8499C7.67505 9.8749 7.67505 10.0999 7.70005 10.1999C7.87505 11.5999 8.97505 13.0749 9.80005 14.4749C10.675 15.9749 11.6 17.4249 12.5 18.8999C13.05 17.9499 13.625 16.9749 14.175 16.0499C14.325 15.7749 14.5 15.4999 14.65 15.2499C14.75 15.0749 14.95 14.8999 15.025 14.7499C15.9 13.1249 17.325 11.4999 17.325 9.8999V9.2499C17.3 9.0249 17.1 8.3999 17.075 8.3749ZM12.45 11.3749C11.825 11.3749 11.15 11.0749 10.8 10.1999C10.75 10.0749 10.75 9.7999 10.75 9.7749V9.3999C10.75 8.2999 11.675 7.7999 12.5 7.7999C13.5 7.7999 14.275 8.5999 14.275 9.5999C14.275 10.5749 13.45 11.3749 12.45 11.3749Z" fill="#0076D6"/>
</svg>
