<svg width="25" height="25" viewBox="0 0 25 25" fill="none" xmlns="http://www.w3.org/2000/svg">
<path d="M19.8907 6.85C19.8107 6.54975 19.648 6.23 19.5277 5.95C18.088 2.49 14.9422 1.25 12.4022 1.25C9.00196 1.25 5.25696 3.53 4.75696 8.22975V9.19C4.75696 9.23 4.77071 9.59 4.79046 9.77C5.07071 12.0098 6.83796 14.39 8.15796 16.6297C9.57796 19.0295 11.0515 21.39 12.5117 23.7495C13.4117 22.2098 14.3087 20.6497 15.1885 19.1497C15.4282 18.7095 15.7062 18.2695 15.9462 17.8495C16.1062 17.5697 16.4117 17.29 16.5515 17.0298C17.9712 14.4305 20.257 11.81 20.257 9.23V8.17C20.257 7.89025 19.9102 6.91025 19.8907 6.85ZM12.4645 11.67C11.465 11.67 10.371 11.1702 9.83096 9.79C9.75046 9.57025 9.75696 9.13 9.75696 9.08975V8.46975C9.75696 6.71025 11.251 5.91 12.5507 5.91C14.1507 5.91 15.3885 7.19025 15.3885 8.79025C15.3885 10.3903 14.0645 11.67 12.4645 11.67Z" fill="black"/>
</svg>
